<svg id="Capa_1" enable-background="new 0 0 512.012 512.012" height="512" viewBox="0 0 512.012 512.012" width="512" xmlns="http://www.w3.org/2000/svg"><g><path fill="#1FFFBC" d="m70.819 144.425c0 15.221 12.383 27.604 27.604 27.604s27.604-12.383 27.604-27.604-12.384-27.604-27.604-27.604-27.604 12.384-27.604 27.604zm40.208 0c0 6.95-5.654 12.604-12.604 12.604-6.949 0-12.604-5.654-12.604-12.604s5.654-12.604 12.604-12.604 12.604 5.655 12.604 12.604z"/><path fill="#1FFFBC" d="m151.607 144.425c0 15.221 12.383 27.604 27.604 27.604s27.604-12.383 27.604-27.604-12.383-27.604-27.604-27.604-27.604 12.384-27.604 27.604zm40.207 0c0 6.95-5.654 12.604-12.604 12.604s-12.604-5.654-12.604-12.604 5.654-12.604 12.604-12.604 12.604 5.655 12.604 12.604z"/><path fill="#1FFFBC" d="m232.395 144.425c0 15.221 12.383 27.604 27.604 27.604s27.604-12.383 27.604-27.604-12.383-27.604-27.604-27.604-27.604 12.384-27.604 27.604zm40.207 0c0 6.95-5.654 12.604-12.604 12.604-6.949 0-12.604-5.654-12.604-12.604s5.654-12.604 12.604-12.604 12.604 5.655 12.604 12.604z"/><path fill="#1FFFBC" d="m413.59 338.764c15.221 0 27.604-12.383 27.604-27.604s-12.383-27.604-27.604-27.604-27.604 12.383-27.604 27.604 12.383 27.604 27.604 27.604zm0-40.208c6.949 0 12.604 5.654 12.604 12.604s-5.654 12.604-12.604 12.604-12.604-5.654-12.604-12.604 5.653-12.604 12.604-12.604z"/><path fill="#1FFFBC" d="m305.197 311.16c0 15.221 12.384 27.604 27.604 27.604s27.604-12.383 27.604-27.604-12.383-27.604-27.604-27.604-27.604 12.383-27.604 27.604zm40.208 0c0 6.95-5.654 12.604-12.604 12.604s-12.604-5.654-12.604-12.604 5.654-12.604 12.604-12.604 12.604 5.654 12.604 12.604z"/><path fill="#0e124d" d="m416.675 160.734h-68.761v-18.913c0-4.142-3.357-7.5-7.5-7.5s-7.5 3.358-7.5 7.5v62.199c0 29.431-18.709 55.87-46.538 65.803-8.859 3.162-16.386 8.712-21.765 16.05l-35.612 48.579c-1.692 2.307-3.981 1.865-4.883 1.569-.905-.296-3.011-1.294-3.011-4.154v-35.947c0-12.17-9.9-22.071-22.07-22.071-10.997 0-92.748 0-103.697 0-38.505 0-69.83-31.326-69.83-69.83v-119.189c0-38.504 31.325-69.83 69.83-69.83h167.746c38.505 0 69.83 31.326 69.83 69.83v21.992c0 4.142 3.357 7.5 7.5 7.5s7.5-3.358 7.5-7.5v-21.992c0-46.775-38.055-84.83-84.83-84.83h-167.746c-46.775 0-84.83 38.054-84.83 84.83v119.191c0 46.775 38.055 84.83 84.83 84.83h68.761v75.905c0 35.747 22.704 67.869 56.495 79.93 6.024 2.15 11.111 5.882 14.71 10.792l35.612 48.578c5.062 6.907 13.573 9.601 21.646 6.958 8.108-2.653 13.347-9.879 13.347-18.41v-35.948c0-3.898 3.172-7.07 7.07-7.07h39.927c4.143 0 7.5-3.358 7.5-7.5s-3.357-7.5-7.5-7.5h-39.927c-12.17 0-22.07 9.901-22.07 22.07v35.948c0 2.859-2.106 3.857-3.012 4.154-.903.294-3.191.737-4.883-1.57l-35.612-48.578c-5.378-7.338-12.904-12.889-21.765-16.051-27.836-9.936-46.538-36.379-46.538-65.803v-75.905h19.936c3.898 0 7.07 3.172 7.07 7.07v35.947c0 8.531 5.238 15.757 13.347 18.41 8.031 2.629 16.552-.032 21.646-6.958l35.611-48.578c6.176-8.425 14.179-10.508 17.845-11.981 32.053-12.883 53.36-44.11 53.36-78.741v-28.286h68.761c38.505 0 69.83 31.326 69.83 69.83v119.191c0 38.504-31.325 69.83-69.83 69.83h-28.77c-4.143 0-7.5 3.358-7.5 7.5s3.357 7.5 7.5 7.5h28.77c46.775 0 84.83-38.054 84.83-84.83v-119.191c0-46.775-38.055-84.83-84.83-84.83z"/></g></svg>