<?xml version="1.0" encoding="UTF-8"?>
<svg xmlns="http://www.w3.org/2000/svg" viewBox="0 0 1922.72 189.6">
  <g id="Wave3">
    <path d="m1921.2.5c-144.2,159.78-248.85,182.62-317,175-111.9-12.51-149.94-109.88-311-120-48.67-3.06-84.07,3.39-170-7-93.14-11.26-97.47-24.39-143-24-117.07,1-130.75,88.17-237,103-132.17,18.45-186.81-105.84-293-72-80.87,25.78-79.41,107.52-149,129C245.62,201.66,155.15,177.16,1.2.5h1920Z" style="fill: #11d8af; opacity: .25; stroke: #11d8af; stroke-miterlimit: 10;"/>
  </g>
  <g id="Wave2">
    <path d="m1.2.5c125.4,126.29,227.98,153.09,300,153,71.53-.09,155.02-26.75,256-59,101.54-32.43,192.99-71.94,233-33,14.27,13.89,8.7,24.8,26,40,37.31,32.77,108.12,21.43,156-1,62.5-29.28,57.77-64.27,116-81,38.32-11.01,74.11-5.56,104-1,51.83,7.9,58.97,20.93,97,29,96.82,20.54,138.97-45.18,198-19,51.94,23.04,40.32,83.23,81,112,42.84,30.3,136.16,20.42,353-140H1.2Z" style="fill: #11d8af; stroke: #11d8af; stroke-miterlimit: 10;"/>
  </g>
  <g id="Wave1">
    <path d="m1.2.5c22.27,34.15,39.51,40.4,51,40,16.03-.55,22.8-14.11,46-15,16.68-.64,16.94,6.22,35,7,19.51.84,23.51-6.98,60-16,20.25-5,30.57-7.45,40-5,23.25,6.05,20.25,26.25,40,33,31.11,10.63,74.62-27.19,92-14,1.25.95,3.07,2.69,6,3,8.86.93,12.21-12.92,26-19,.96-.42,9.94-4.24,20-2,13.46,3,14.67,13.66,25,18,16.6,6.97,30.13-13.59,53-16,23.04-2.43,34.5,15.78,61,32,39.78,24.35,98.54,35.06,143,19,44.6-16.11,47.61-49.33,84-49,28.76.26,34.98,21.09,69,21,34.05-.09,41.72-21,64-15,28.78,7.74,27.07,45.59,56,57,25.7,10.14,51.52-10.08,74-20,64.3-28.36,117.11,20.59,217,49,37.67,10.71,241.55,68.69,362-20,27.97-20.59,59.81-55.25,101-49,29.9,4.54,34.69,34.91,61,43,23.72,7.29,63.73-1.79,134-82H1.2Z" style="fill: #11d8af; opacity: .5; stroke: #11d8af; stroke-miterlimit: 10;"/>
  </g>
</svg>