<?xml version="1.0" encoding="UTF-8"?>
<svg id="Layer_2" data-name="Layer 2" xmlns="http://www.w3.org/2000/svg" viewBox="0 0 406 405.9">
  <defs>
    <style>
      .cls-1 {
        fill: #d1ff4f;
        stroke-width: 0px;
      }
    </style>
  </defs>
  <g id="Capa_1" data-name="Capa 1">
    <g>
      <path class="cls-1" d="m212.2,264.6c-1.3-3.2-2.8-6.9-4.3-11.1-1.5-4.2-3.2-8.6-4.9-13.3-4,.1-8.2.2-12.6.3s-8.9.1-13.4.1h-15.6c-4.7,0-8.9-.1-12.8-.2-1.6,4.7-3.1,9.1-4.6,13.2-1.5,4.1-2.9,7.8-4.2,11-2.7,6.8-6.5,10.2-11.6,10.2-1.9,0-3.6-.6-5.3-1.8-1.7-1.2-2.5-2.9-2.5-5.2s.4-5.2,1.2-8.9c.8-3.7,1.8-7.6,3.1-11.8,1.3-4.2,2.6-8.5,4.1-13s2.9-8.6,4.2-12.5c1.3-4.3,3.2-9.7,5.7-16.3s5.1-13.5,7.9-20.7,5.6-14.3,8.4-21.3,5.3-13.1,7.6-18.3c.5-1.3,1.2-2.8,2-4.5s1.8-3.2,2.9-4.7,2.4-2.7,3.8-3.8c1.4-1.1,3-1.6,4.7-1.6s3.3.6,4.8,1.7,2.8,2.5,3.9,4.1,2.1,3.3,3,5,1.6,3.3,2.1,4.6c2.1,5.3,4.6,11.5,7.3,18.4,2.7,6.9,5.5,13.9,8.2,21s5.3,13.8,7.7,20.2c2.4,6.4,4.3,11.8,5.8,16.2,1.2,3.9,2.6,8,4.1,12.4s3,8.7,4.3,13,2.4,8.2,3.3,11.9,1.3,6.6,1.3,8.9-.8,4-2.5,5.2-3.4,1.8-5.3,1.8c-2.4,0-4.6-.8-6.6-2.5-2-1.7-3.8-4.2-5.2-7.7Zm-35.4-44c3.2,0,6.4,0,9.6.1s6.4.2,9.6.3c-1.6-4.7-3.2-9.3-4.8-14-1.6-4.7-3.1-9.1-4.5-13.4-1.4-4.3-2.7-8.2-3.8-11.9-1.1-3.7-2.1-6.9-2.9-9.7-.5-1.7-1.1-3.1-1.8-4.2-.7-1.1-1.5-1.6-2.6-1.6s-1.9.6-2.6,1.7c-.7,1.1-1.3,2.6-1.8,4.3-1.6,5.5-3.8,12.6-6.7,21.3-2.9,8.7-5.9,17.9-9.1,27.5,3.6-.1,7.2-.2,10.8-.3,3.6-.1,7.1-.1,10.6-.1Z"/>
      <path class="cls-1" d="m266.5,262.4c-.3-4.8-.4-9.8-.5-15s-.2-10.8-.3-16.8c-.1-6-.2-12.5-.2-19.5v-48.5l-12,6.2c-3.3,2.1-6,3.4-7.9,3.8-1.9.4-4,.6-6.3.6-2,0-3.8-.9-5.3-2.6-1.5-1.7-2.3-3.8-2.3-6.2s.8-4.5,2.5-6.3,3.6-3.4,5.9-4.9c2.9-2,6.1-4,9.5-6s6.7-3.8,9.9-5.5c3.2-1.7,6.2-3,8.9-4,2.7-1,5-1.5,6.9-1.5.9,0,1.9.1,2.9.4s1.9.8,2.8,1.6c.9.8,1.6,2,2.2,3.7s1,3.9,1.1,6.7c.3,4.8.5,9,.6,12.6.1,3.6.3,7.1.4,10.5s.2,7,.2,10.7v30.2c0,5.5-.1,10.9-.2,16.2s-.3,10.7-.4,16.2-.3,11.2-.6,17.2c-.1,3.2-.4,5.7-.9,7.4s-1.1,3.1-1.9,4-1.7,1.5-2.7,1.7-2.2.3-3.5.3c-2.4,0-4.4-.8-6-2.5-1.6-1.7-2.5-5.2-2.8-10.7Z"/>
    </g>
    <g>
      <path class="cls-1" d="m405.3,187c-.5-6.5-7.6-10.2-13.3-7l-1.5.9c-3.2,1.8-5,5.3-4.7,8.9.4,5.3.2,7.4.1,15.1-.4,22.5-5,44.1-13,64.2-6.7,16.8-15.8,32.4-26.9,46.4l15.4,14.3c11.1-13.9,20.5-29.2,27.7-45.7,10.9-24.8,16.9-52.2,16.9-81-.1-5.5-.3-10.8-.7-16.1Zm-59.3-129.6C309.8,17.9,262.3,0,203,0,90.9,0-.2,91.3,0,203.5c.3,111.3,91.2,202.2,202.4,202.4,7.5,0,15-.4,22.3-1.2,28-3,54.4-11.7,77.9-25l-10.3-17.9c-21.5,12.4-45.6,20.5-71.2,23.1-6,.6-12.1.9-18.2.9-101.4,0-183.8-83-182.9-184.7C20.9,101.3,102.5,20.2,202.3,19.8c49.4-.2,94.3,19.4,127.4,51.1,3.5,3.3,8.6,4.2,13,2.2,3.8-1.7,5.9-5.4,5.9-9.2,0-2.1-.9-4.5-2.6-6.5Z"/>
      <path class="cls-1" d="m361.4,329.8c-16.2,20.2-36.1,37.2-58.8,50l-10.3-17.9c20.7-11.9,38.9-27.7,53.7-46.4l15.4,14.3Z"/>
    </g>
    <path class="cls-1" d="m331.5,310.2c-12.5,14.1-27,26.5-43,36.7-5,3.2-11.6,1.5-14.5-3.6h0c-2.8-4.8-1.3-10.9,3.4-13.9,14.2-9.2,27.1-20.4,38.4-33.1,3.9-4.4,10.6-4.8,14.9-.8l.2.2c4,3.9,4.3,10.3.6,14.5Z"/>
  </g>
</svg>