<svg data-name="Layer 2" xmlns="http://www.w3.org/2000/svg" viewBox="0 0 501.77 462.48"><path d="M41.46 462.48h448.41" style="stroke-width:0" data-name="Capa 1"/><path d="M341.61 459.38H160.17c-6.84 0-11.83-6.32-10.25-12.98 10.88-45.68 51.96-79.65 100.97-79.65s90.09 33.97 100.97 79.65c1.59 6.66-3.41 12.98-10.25 12.98Zm22.13-31.6h127.49c6.84 0 11.83-6.32 10.25-12.98-10.88-45.68-51.96-79.65-100.97-79.65-31.96 0-60.54 14.45-79.58 37.17 19.2 13.7 34.27 32.9 42.81 55.46Zm-353.19 0h127.49c8.54-22.56 23.62-41.77 42.81-55.46-19.04-22.72-47.62-37.17-79.58-37.17-49.01 0-90.09 33.97-100.97 79.65-1.59 6.65 3.41 12.97 10.25 12.97Zm90.72-208.12c28.98 0 52.48 23.5 52.48 52.48s-23.5 52.48-52.48 52.48-52.48-23.5-52.48-52.48 23.5-52.48 52.48-52.48Zm149.62 31.6c-28.98 0-52.48 23.5-52.48 52.48s23.5 52.48 52.48 52.48 52.48-23.5 52.48-52.48-23.5-52.48-52.48-52.48Zm149.62-31.6c28.98 0 52.48 23.5 52.48 52.48s-23.5 52.48-52.48 52.48-52.48-23.5-52.48-52.48 23.5-52.48 52.48-52.48ZM16.48 353.12V60.57c0-5.8 4.73-10.53 10.53-10.53H159.4v184.32c-12.37-18.99-33.79-31.56-58.14-31.56-38.29 0-69.34 31.05-69.34 69.34 0 21.92 10.18 41.47 26.07 54.17a120.853 120.853 0 0 0-41.52 26.81Zm142.93-43.2a69.81 69.81 0 0 1-14.88 16.4c5.13 1.98 10.1 4.29 14.88 6.92v-23.32ZM184.69 0h132.39c4.63 0 8.43 3.79 8.43 8.43v336.03a121.21 121.21 0 0 0-19.11 18.98c-3.96-2.06-8.05-3.9-12.25-5.52 15.89-12.71 26.07-32.25 26.07-54.18 0-38.29-31.05-69.34-69.34-69.34s-69.33 31.05-69.33 69.34c0 21.92 10.18 41.47 26.07 54.18-4.2 1.62-8.29 3.46-12.25 5.52a121.635 121.635 0 0 0-19.11-18.98V8.43c0-4.63 3.79-8.43 8.43-8.43Zm84.35 167.57c-4.06 0-7.37 3.31-7.37 7.37v19.92c0 4.06 3.31 7.37 7.37 7.37h19.92c4.06 0 7.37-3.31 7.37-7.37v-19.92c0-4.06-3.31-7.37-7.37-7.37h-19.92ZM212.81 34.83c-4.06 0-7.37 3.31-7.37 7.37v18.63c0 4.06 3.31 7.37 7.37 7.37h76.15c4.06 0 7.37-3.31 7.37-7.37V42.2c0-4.06-3.31-7.37-7.37-7.37h-76.15Zm56.23 76.51c-4.06 0-7.37 3.31-7.37 7.37v19.92c0 4.06 3.31 7.37 7.37 7.37h19.92c4.06 0 7.37-3.31 7.37-7.37v-19.92c0-4.06-3.31-7.37-7.37-7.37h-19.92Zm-56.23 0c-4.06 0-7.37 3.31-7.37 7.37v19.92c0 4.06 3.31 7.37 7.37 7.37h19.92c4.06 0 7.37-3.31 7.37-7.37v-19.92c0-4.06-3.31-7.37-7.37-7.37h-19.92Zm0 56.23c-4.06 0-7.37 3.31-7.37 7.37v19.92c0 4.06 3.31 7.37 7.37 7.37h19.92c4.06 0 7.37-3.31 7.37-7.37v-19.92c0-4.06-3.31-7.37-7.37-7.37h-19.92Zm272.48 185.54a121.094 121.094 0 0 0-41.52-26.81c15.89-12.71 26.07-32.25 26.07-54.17 0-38.29-31.05-69.34-69.34-69.34-24.35 0-45.77 12.56-58.14 31.56V50.04h132.39c5.8 0 10.53 4.73 10.53 10.53v292.54Zm-142.93-43.2v23.32c4.78-2.63 9.75-4.95 14.88-6.92a69.81 69.81 0 0 1-14.88-16.4Zm29.09-221.82c-4.06 0-7.37 3.31-7.37 7.37v21.78c0 4.06 3.31 7.37 7.37 7.37h84.75c4.06 0 7.37-3.31 7.37-7.37V95.46c0-4.06-3.31-7.37-7.37-7.37h-84.75Zm60.54 73.69c-4.06 0-7.37 3.31-7.37 7.37v19.92c0 4.06 3.31 7.37 7.37 7.37h19.92c4.06 0 7.37-3.31 7.37-7.37v-19.92c0-4.06-3.31-7.37-7.37-7.37h-19.92Zm-56.23 0c-4.06 0-7.37 3.31-7.37 7.37v19.92c0 4.06 3.31 7.37 7.37 7.37h19.92c4.06 0 7.37-3.31 7.37-7.37v-19.92c0-4.06-3.31-7.37-7.37-7.37h-19.92ZM130.33 88.09H45.57c-4.06 0-7.37 3.31-7.37 7.37v21.78c0 4.06 3.31 7.37 7.37 7.37h84.75c4.06 0 7.37-3.31 7.37-7.37V95.46c0-4.06-3.31-7.37-7.37-7.37Zm-60.54 73.69H49.87c-4.06 0-7.37 3.31-7.37 7.37v19.92c0 4.06 3.31 7.37 7.37 7.37h19.92c4.06 0 7.37-3.31 7.37-7.37v-19.92c0-4.06-3.31-7.37-7.37-7.37Zm56.23 0H106.1c-4.06 0-7.37 3.31-7.37 7.37v19.92c0 4.06 3.31 7.37 7.37 7.37h19.92c4.06 0 7.37-3.31 7.37-7.37v-19.92c0-4.06-3.31-7.37-7.37-7.37Z" style="stroke-width:0;fill-rule:evenodd;fill:#30303b" data-name="Layer 1"/></svg>