<?xml version="1.0" encoding="UTF-8"?><svg id="Layer_2" xmlns="http://www.w3.org/2000/svg" viewBox="0 0 473.13 473.07"><g id="person"><path id="body" d="M238.44,253.25c4.77-12.9,6.14-26.19,5.91-39.83-.82-50.34-42.03-90.63-92.38-91.33-20.32-.28-40.65-.25-60.97.02-40.45.52-76.11,27.99-87.11,66.91-1.59,5.63-2.57,11.42-3.89,17.12.2,6.3.38,12.31.57,18.61,2.6,9,5.22,17.99,7.73,27.02.24.85-.16,2.03-.58,2.9-2.23,4.63-4.54,9.23-6.84,13.83-.16,3.54-.37,8.22-.53,11.76,1.2,3.02,2.11,6.19,3.69,8.99,5.88,10.37,14.95,15.5,26.99,15.99.67.03,1.24.49,1.4,1.14,3.03,12.13,8.24,23.21,16.44,32.77,7.74,9.02,17.01,15.94,28.42,20.89,1.1.48,1.22,2.01.19,2.65-34.88,21.49-49.16,53-46.62,93.07.04.53-.2,1.02-.6,1.31h16.54c-.25-.24-.42-.57-.45-.95-2-24.32,2.74-46.2,19.93-65.1.88-.97,2.49-.43,2.61.88,1.18,12.35,5.14,23.06,13.09,32.12,8.36,9.53,18.87,15.3,31.27,17.73.71.13,1.22.74,1.22,1.46v12.79c0,.42-.17.8-.45,1.07h16.94c-.99-.72-1.33-2.01-1.14-4.14.27-3.1.11-6.24.07-9.42,0-.69.48-1.3,1.15-1.47,26.75-6.74,41.46-23.21,44.76-50.11.15-1.27,1.73-1.79,2.6-.84,17.13,18.63,21.83,40.64,20.03,65.12-.02.33-.15.62-.36.86h16.25c-.42-.29-.68-.79-.65-1.35,2.72-41.08-12.38-72.96-48.43-94.22.55-.48.83-.87,1.21-1.03,23.53-10.27,38.6-27.79,45.41-52.54.33-1.21,2.37-2.64,3.72-2.78,24.22-2.38,36.32-26.67,23.59-47.4-.75-1.22-1.19-3.24-.73-4.5ZM30.48,288.07c0,.94-.87,1.66-1.79,1.48-8.55-1.69-13.48-7.66-13.09-15.65.37-7.5,5.75-13.18,13.22-14.02.89-.1,1.66.6,1.66,1.5v26.69ZM105.55,390.28c-.19.73-.64,1.39-.98,2.07-3.18,6.32-6.35,12.64-9.8,19.5-.49.99-1.87,1.13-2.55.25-4.83-6.24-7.27-12.76-7.89-20.05-.11-1.37-.09-2.76-.1-4.14-.08-12.55.97-14.24,13.44-17.26.73-.17,1.47.21,1.75.9,2.13,5.33,4.3,10.72,6.37,16.15.28.73-.02,1.75-.24,2.58ZM137.08,424.08c-9.99,4.09-19.46,4.07-29.47.04-.81-.32-1.15-1.29-.77-2.07,2.52-5.1,4.97-10.06,7.43-15.02,1.36-2.75,2.66-5.54,4.16-8.21,1.7-3.03,6.13-3.15,7.71-.11,3.93,7.57,7.67,15.23,11.7,23.3.39.78.05,1.74-.76,2.07ZM116.19,366.69h12.23c1.06,0,1.79,1.06,1.41,2.04-1.51,3.9-2.86,7.51-4.45,11-.41.9-2.07,1.72-3.13,1.7-1.05-.03-2.6-.92-3.02-1.85-1.58-3.43-2.92-6.96-4.44-10.84-.38-.99.34-2.05,1.4-2.05ZM152.38,411.98c-.67.9-2.06.77-2.56-.23-3.73-7.43-7.31-14.52-10.79-21.67-.4-.83-.33-2.16.02-3.07,1.97-5.11,4.06-10.18,6.32-15.76.33-.79,1.25-1.16,2.03-.81,3.93,1.79,7.65,3.43,11.28,5.24.78.39,1.48,1.54,1.65,2.45,2.16,11.36-.84,24.32-7.95,33.85ZM197.89,296.55c-2.09,29.61-26.58,52.57-56.48,54.2-14.26.78-28.71.8-42.89-.66-28.1-2.9-50.87-27.3-52.09-55.51-.84-19.52-.52-39.1-.23-58.65.18-12.53,9.46-21.94,22.02-22.22,18.47-.41,36.95-.18,55.43-.08,1.73.01,3.57.81,5.18,1.59,18.58,9.02,38.24,13.44,58.84,13.71,3.49.05,7-.43,10.46-.66.19.35.45.62.45.88-.12,22.47.89,45.03-.69,67.4ZM215.76,289.5c-.92.15-1.76-.56-1.76-1.49v-26.51c0-.84.69-1.53,1.53-1.51,7.03.16,12.88,5.93,13.6,13.56.74,7.82-4.83,14.51-13.37,15.95ZM225.12,244.68c-.25.7-1,1.11-1.74.96-2.93-.59-5.56-1.13-8.36-1.69-.7-.15-1.21-.76-1.21-1.48-.04-11.16-.52-22.31.13-33.39.93-15.73-10.9-28.2-29.06-25.73-.74.1-1.28.74-1.28,1.48v12.15c0,.83.68,1.51,1.51,1.5,1.75-.01,3.4-.03,5.04.02,5.22.14,8.61,3.26,8.47,7.72-.14,4.29-3.45,7.27-8.42,7.31-33.84.28-62.87-11.47-87-35.15-4.29-4.21-8.07-8.92-12.23-13.66-.5-.58-1.37-.68-2-.24-3.13,2.23-6.39,4.55-10.16,7.23-.74.53-.85,1.59-.23,2.26,6.9,7.43,13.6,14.64,20.43,21.98.28.3.4.66.4,1.01,0,.77-.6,1.5-1.49,1.51-9.23.03-18.47-.02-27.71.02-23.2.11-39.36,16.36-39.47,39.65v4.44c0,.74-.53,1.37-1.26,1.49-2.07.35-4.06.69-6.15,1.04-.7.12-1.39-.26-1.66-.91-7.31-17.68-8.2-35.46-2.36-53.51,10.23-31.62,39.09-52.86,72.37-53.21,20.17-.21,40.34-.16,60.51-.01,42.48.29,76.07,33.54,77.01,76.04.23,10.54-.45,20.94-4.08,31.17Z" style="fill:#313131; stroke-width:0px;"/><path id="mouth" d="M160.13,290.34c1.56,16.09-2.88,29.57-16.5,38.7-13.21,8.85-27.31,9.25-40.93,1.06-14.77-8.87-19.79-22.75-18.25-39.76h75.68ZM143.21,305.51h-41.98c3.32,9.32,12.28,15.36,21.85,14.98,9.29-.36,17.64-6.5,20.13-14.98Z" style="fill:#313131; stroke-width:0px;"/><path id="left-eye" d="M114.52,274.38h-14.47c-3.83-10.89-7.92-14.75-15.63-14.85-7.99-.1-12.01,3.57-16.15,14.81h-14.09c-1.45-14.94,12.23-29.2,28.67-30.17,16.72-.99,31.31,12.7,31.67,30.21Z" style="fill:#313131; stroke-width:0px;"/><path id="right-eye" d="M190.6,274.37h-14.39c-3.14-10.81-8.05-15.16-16.58-14.83-7.62.3-12.66,5.3-14.72,14.8h-14.47c-1.07-15.64,13.05-29.92,29.61-30.22,16.62-.3,30.83,13.53,30.55,30.25Z" style="fill:#313131; stroke-width:0px;"/></g><g id="buildings"><path id="structure" d="M471.85,206.85c-54.85-8.22-109.57-16.43-164.75-24.71-.91-.13-1.73.57-1.73,1.49v4.41c0,35.72-.08,71.45.11,107.17.02,4.13-1.13,5.82-5.13,6.92-22.22,6.13-44.34,12.66-66.57,18.8-3.69,1.02-4.66,2.6-4.65,6.31.15,42.86.09,85.72.09,128.58-.5.5-.8.81-1.24,1.25-.08.08-.17.17-.26.26h-12.56c-.31,0-.6-.1-.84-.26h-16.25c-.25.3-.63.5-1.05.53-1.12.08-2.2.16-3.28.16-19.68.01-39.36-.09-59.04.09-1.71.01-2.94-.2-3.74-.78h-16.94c-.27.27-.64.43-1.05.43H47.86c-.41,0-.78-.16-1.06-.43h-16.54c-.25.19-.56.3-.89.3H1.74c-.83,0-1.5.67-1.5,1.5v12.7c0,.83.67,1.5,1.5,1.5h469.88c.83,0,1.51-.67,1.51-1.5V208.34c0-.75-.55-1.38-1.28-1.49ZM305.14,455.95c0,.82-.67,1.5-1.5,1.5h-27.03c-.83,0-1.51-.68-1.51-1.5v-11.6c0-.83.68-1.5,1.51-1.5h27.03c.83,0,1.5.67,1.5,1.5v11.6ZM305.14,425.44c0,.83-.68,1.51-1.51,1.51h-27.03c-.83,0-1.51-.68-1.51-1.51v-11.62c0-.83.68-1.5,1.51-1.5h27.03c.83,0,1.51.67,1.51,1.5v11.62ZM275.23,394.93v-11.46c0-.83.67-1.51,1.5-1.51h26.78c.83,0,1.5.68,1.5,1.51v11.46c0,.83-.67,1.5-1.5,1.5h-26.78c-.83,0-1.5-.67-1.5-1.5ZM335.5,455.88c0,.83-.67,1.5-1.5,1.5h-11.56c-.83,0-1.5-.67-1.5-1.5v-87.85c0-.83-.67-1.5-1.5-1.5h-58.2c-.83,0-1.51.67-1.51,1.5v87.89c0,.83-.67,1.5-1.5,1.5h-12.13c-.83,0-1.51-.67-1.51-1.5v-90.44c0-.67.45-1.25,1.09-1.43,29.03-8.31,58.24-16.67,87.9-25.16.96-.27,1.92.45,1.92,1.45v115.54ZM335.77,320.59c-.05.86-1.24,2.14-2.14,2.4-28.87,8.31-57.76,16.53-87.36,24.96-.95.28-1.91-.44-1.92-1.43-.02-3.87-.08-7.47.12-11.05.04-.79,1.38-1.93,2.32-2.2,29.36-8.41,58.74-16.73,88.12-25.06.13-.04.3.03.96.13,0,4.03.13,8.15-.1,12.25ZM458.03,453.59c0,.83-.09,1.67-.18,2.65-.07.78-.72,1.37-1.5,1.37h-103.39c-.83,0-1.5-.67-1.5-1.5v-166.64c0-1-.96-1.71-1.92-1.44-9.08,2.54-17.74,4.97-26.61,7.46-.96.27-1.92-.45-1.92-1.45v-62.08c0-.92.82-1.62,1.73-1.48,11.9,1.74,23.61,3.44,35.31,5.2,31.94,4.8,63.86,9.7,95.82,14.37,3.37.49,4.24,1.65,4.23,4.91-.08,66.21-.06,132.42-.07,198.63ZM458.09,224.15c-.2,2.97-.1,5.96-.06,9.34.01.92-.82,1.64-1.74,1.51-18.54-2.75-36.24-5.35-53.92-8-25.85-3.88-51.69-7.85-77.55-11.61-3.05-.44-4.34-1.32-4.11-4.52.22-3.09.11-6.2.07-9.45-.01-.93.81-1.65,1.73-1.51,23.05,3.43,45.58,6.77,68.12,10.15,21.13,3.18,42.25,6.48,63.4,9.53,3.06.44,4.28,1.41,4.06,4.56Z" style="fill:#ffe081; stroke-width:0px;"/><path id="_19" d="M351.1,259.89v14.32h-14.85v-14.32h14.85Z" style="fill:#ffe081; stroke-width:0px;"/><path id="_18" d="M381.43,274.32h-14.74v-14.56h14.74v14.56Z" style="fill:#313131; stroke-width:0px;"/><path id="_17" d="M397.15,274.25v-14.38h14.86v14.38h-14.86Z" style="fill:#ffe081; stroke-width:0px;"/><path id="_16" d="M427.85,259.7h14.65v14.53h-14.65v-14.53Z" style="fill:#313131; stroke-width:0px;"/><path id="_15" d="M366.63,335.26v-14.35h14.84v14.35h-14.84Z" style="fill:#ffe081; stroke-width:0px;"/><path id="_14" d="M411.95,335.39h-14.73v-14.58h14.73v14.58Z" style="fill:#313131; stroke-width:0px;"/><path id="_13" d="M442.67,320.71v14.56h-14.82v-14.56h14.82Z" style="fill:#ffe081; stroke-width:0px;"/><path id="_12" d="M366.76,351.22h14.73v14.58h-14.73v-14.58Z" style="fill:#313131; stroke-width:0px;"/><path id="_11" d="M411.96,365.92h-14.73v-14.59h14.73v14.59Z" style="fill:#ffe081; stroke-width:0px;"/><path id="_10" d="M427.69,365.82v-14.44h14.85v14.44h-14.85Z" style="fill:#313131; stroke-width:0px;"/><path id="_9" d="M442.55,290.21v14.7h-14.69v-14.7h14.69Z" style="fill:#313131; stroke-width:0px;"/><path id="_8" d="M397.28,290.2h14.73v14.57h-14.73v-14.57Z" style="fill:#313131; stroke-width:0px;"/><path id="_7" d="M381.44,396.45h-14.62v-14.67h14.62v14.67Z" style="fill:#313131; stroke-width:0px;"/><path id="_6" d="M412.08,381.81v14.6h-14.87v-14.6h14.87Z" style="fill:#313131; stroke-width:0px;"/><path id="_5" d="M442.57,381.76v14.71h-14.69v-14.71h14.69Z" style="fill:#313131; stroke-width:0px;"/><path id="_4" d="M366.68,304.85v-14.56h14.88v14.56h-14.88Z" style="fill:#313131; stroke-width:0px;"/><path id="_3" d="M366.77,412.24h14.72v14.6h-14.72v-14.6Z" style="fill:#313131; stroke-width:0px;"/><path id="_2" d="M397.34,412.27h14.62v14.72h-14.62v-14.72Z" style="fill:#313131; stroke-width:0px;"/><path id="_1" d="M442.59,412.34v14.58h-14.82v-14.58h14.82Z" style="fill:#313131; stroke-width:0px;"/></g><g id="checkbox"><path id="box" d="M424.34,0c9.16,3.08,15.94,8.5,17.94,18.49.39,1.94.5,3.97.5,5.96.03,29.4.04,58.81.01,88.21-.02,14.98-9.44,24.63-24.41,24.75-17.24.15-34.48.1-51.72-.03-2.93-.02-4.81.8-6.52,3.22-4.17,5.91-8.55,11.67-12.98,17.38-6.79,8.77-16.5,11.92-26.14,8.62-9.65-3.3-15.43-11.69-15.64-22.71-.04-1.96,0-3.92,0-6.45-3.32,0-6.2,0-9.08,0-14.01,0-28.02.05-42.03-.02-15.72-.08-25.02-9.36-25.04-24.98-.04-28.17-.01-56.34-.01-84.51,0-16.33,3.76-21.96,18.64-27.94h176.48ZM320.77,122.04c0,7.35.1,14.1-.04,20.84-.09,4.21.84,7.8,5.21,9.24,4.34,1.44,7.29-.83,9.77-4.22,5.38-7.32,11.03-14.43,16.26-21.86,2.2-3.12,4.59-4.15,8.39-4.11,19.09.22,38.18.11,57.28.09,7.28,0,9.82-2.43,9.83-9.61.04-29.1.04-58.2,0-87.3,0-7.28-2.48-9.79-9.66-9.79-54.51-.03-109.01-.03-163.52,0-7.44,0-9.95,2.56-9.97,10.03-.03,12.01,0,24.02,0,36.03,0,16.94-.02,33.87.01,50.81.02,7.2,2.62,9.8,9.69,9.84,4.77.03,9.55,0,14.32,0,17.23,0,34.46,0,52.41,0Z" style="fill:#ffe081; stroke-width:0px;"/><path id="check" d="M378.26,43.84c-21.6,21.62-43.55,43.58-65.08,65.13-6.5-6.5-13.22-13.22-20.08-20.09,3.17-3,6.62-6.24,10.81-10.2,2.43,3.18,5.12,6.7,7.76,10.16,19.34-19.48,37.6-37.88,55.64-56.04,4.24,4.28,7.64,7.71,10.95,11.05Z" style="fill:#ffe081; stroke-width:0px;"/></g></svg>