<?xml version="1.0" encoding="UTF-8"?>
<svg id="Layer_2" data-name="Layer 2" xmlns="http://www.w3.org/2000/svg" viewBox="0 0 405.92 405.92">
  <defs>
    <style>
      .cls-1 {
        fill: #d1ff4f;
        stroke-width: 0px;
      }
    </style>
  </defs>
  <g id="Capa_1" data-name="Capa 1">
    <g>
      <path class="cls-1" d="m180.36,131.26c4.4,0,8.83.37,13.3,1.1,4.47.73,8.5,1.87,12.1,3.4,3.6,1.53,6.57,3.4,8.9,5.6,2.33,2.2,3.5,4.77,3.5,7.7s-.8,5.4-2.4,7c-1.6,1.6-3.6,2.4-6,2.4-2.27,0-4.27-.37-6-1.1-1.73-.73-3.7-1.57-5.9-2.5-2.2-.93-4.84-1.77-7.9-2.5-3.07-.73-7.13-1.1-12.2-1.1s-9.9,1.3-14.5,3.9c-4.6,2.6-8.6,6.2-12,10.8-3.4,4.6-6.1,10.04-8.1,16.3-2,6.27-3,13.07-3,20.4,0,9.07,1.17,16.87,3.5,23.4,2.33,6.53,5.37,11.9,9.1,16.1,3.73,4.2,7.96,7.33,12.7,9.4,4.73,2.07,9.5,3.1,14.3,3.1,5.73,0,10.53-.6,14.4-1.8,3.87-1.2,7.17-2.53,9.9-4,2.73-1.47,5.1-2.8,7.1-4s3.93-1.8,5.8-1.8c2.27,0,4.06.63,5.4,1.9,1.33,1.27,2,3.5,2,6.7,0,2.67-1.04,5.37-3.1,8.1-2.07,2.73-5.07,5.2-9,7.4-3.93,2.2-8.63,4-14.1,5.4-5.47,1.4-11.6,2.1-18.4,2.1-7.47,0-14.9-1.47-22.3-4.4-7.4-2.93-14-7.3-19.8-13.1-5.8-5.8-10.5-13.07-14.1-21.8-3.6-8.73-5.4-18.9-5.4-30.5s1.63-21.93,4.9-31c3.27-9.07,7.73-16.77,13.4-23.1,5.67-6.33,12.27-11.17,19.8-14.5,7.53-3.33,15.57-5,24.1-5Z"/>
      <path class="cls-1" d="m268.76,260.46c-.27-4.8-.43-9.8-.5-15-.07-5.2-.17-10.8-.3-16.8-.13-6-.2-12.5-.2-19.5v-48.5l-12,6.2c-3.33,2.13-5.97,3.4-7.9,3.8-1.93.4-4.04.6-6.3.6-2,0-3.77-.87-5.3-2.6-1.53-1.73-2.3-3.8-2.3-6.2s.83-4.5,2.5-6.3c1.67-1.8,3.63-3.43,5.9-4.9,2.93-2,6.1-4,9.5-6,3.4-2,6.7-3.83,9.9-5.5,3.2-1.67,6.17-3,8.9-4,2.73-1,5.03-1.5,6.9-1.5.93,0,1.9.13,2.9.4,1,.27,1.93.8,2.8,1.6.87.8,1.6,2.03,2.2,3.7.6,1.67.97,3.9,1.1,6.7.27,4.8.47,9,.6,12.6.13,3.6.27,7.1.4,10.5.13,3.4.2,6.97.2,10.7v30.2c0,5.47-.07,10.87-.2,16.2-.13,5.33-.27,10.73-.4,16.2-.13,5.47-.33,11.2-.6,17.2-.13,3.2-.43,5.67-.9,7.4-.47,1.73-1.1,3.07-1.9,4-.8.93-1.7,1.5-2.7,1.7s-2.17.3-3.5.3c-2.4,0-4.4-.83-6-2.5-1.6-1.67-2.53-5.23-2.8-10.7Z"/>
    </g>
    <g>
      <path class="cls-1" d="m405.29,186.95c-.5-6.49-7.65-10.21-13.3-6.95l-1.47.85c-3.16,1.83-5,5.31-4.71,8.95.42,5.32.25,7.38.11,15.07-.42,22.5-5.02,44.14-13.04,64.15-6.72,16.77-15.84,32.39-26.92,46.41l15.4,14.29c11.12-13.87,20.46-29.22,27.67-45.71,10.86-24.84,16.89-52.25,16.89-81.05,0-5.38-.21-10.72-.63-16.01Zm-59.33-129.55C309.74,17.89,262.26,0,202.96,0,90.88,0-.28,91.33,0,203.48c.28,111.27,91.17,202.16,202.44,202.44,7.53.02,14.97-.38,22.3-1.17,28.05-3,54.4-11.74,77.87-25.03l-10.32-17.86c-21.5,12.38-45.62,20.5-71.18,23.13-5.99.62-12.06.93-18.19.93-101.43-.02-183.84-83.02-182.91-184.66C20.92,101.47,102.52,20.35,202.31,20c49.41-.17,94.35,19.35,127.4,51.14,3.47,3.34,8.65,4.17,13.03,2.15,3.77-1.74,5.85-5.42,5.85-9.16,0-2.38-.85-4.78-2.63-6.73Z"/>
      <path class="cls-1" d="m361.36,329.72c-16.18,20.17-36.12,37.2-58.75,50l-10.32-17.86c20.66-11.9,38.9-27.74,53.67-46.43l15.4,14.29Z"/>
    </g>
    <path class="cls-1" d="m333.76,310.68c-12.54,14.14-27.02,26.53-43.01,36.73-4.95,3.16-11.55,1.51-14.49-3.58h0c-2.77-4.79-1.26-10.88,3.37-13.89,14.22-9.23,27.14-20.39,38.38-33.07,3.88-4.38,10.57-4.77,14.86-.8l.17.16c4.12,3.82,4.45,10.25.72,14.45Z"/>
  </g>
</svg>