<?xml version="1.0" encoding="UTF-8"?><svg id="b" xmlns="http://www.w3.org/2000/svg" viewBox="0 0 431.84 173.93"><g id="c"><path d="M201.49,153.11c-2.23,3.54-5.38,4.8-9.58,4.73-11.52-.2-23.05-.07-35.17-.07,0,3.97.03,7.72,0,11.47-.05,4.46-1.76,5.82-5.5,3.73-4.05-2.26-7.53-2.33-11.61-.05-3.76,2.1-5.59.73-5.68-3.6-.07-3.66-.02-7.31-.02-11.54h-4.77c-39.73,0-79.45,0-119.18,0-7.75,0-9.88-2.1-9.88-9.72,0-33.04,0-66.08,0-99.12,0-.92-.3-2.02.1-2.71.64-1.1,2.03-2.02,2.71-1.88,1.18.24,2.36.76,2.92,1.93.52,1.07.17,2.57.17,3.88,0,31.99,0,63.98,0,95.97,0,1.67,0,3.35,0,5.31h127.6v-5.75h-4.91c-36.71,0-73.42,0-110.13,0-6.1,0-6.46-.37-6.46-6.44,0-40.25,0-80.5,0-120.75,0-6.04.24-6.29,6.12-6.29,55.06,0,110.13,0,165.19,0,5.72,0,6.05.32,6.06,5.96,0,25.04,0,50.08,0,75.12,0,1.17.17,2.5-.31,3.47-.43.89-1.68,1.99-2.5,1.93-1.05-.07-2.43-1-2.91-1.94-.54-1.06-.28-2.56-.28-3.86-.01-23.34,0-46.67,0-70.01,0-1.43,0-2.87,0-4.61H18.41v121.22h115.23v-12.48c-.86-.14-1.74-.29-2.62-.41-4.6-.64-6.62-2.6-6.52-7.23.07-3.37-.68-5.9-3.29-8.29-3.76-3.45-3.65-7.3.18-10.91,2.31-2.18,3.19-4.42,3.11-7.56-.13-5.4,2.5-7.94,8.02-7.8,3.01.08,5.12-.8,7.21-3,3.88-4.09,7.57-4.02,11.48.16,1.98,2.11,4.02,2.9,6.88,2.84,5.82-.13,8.27,2.28,8.1,8.03-.09,3.05.91,5.14,3.07,7.21,4.16,3.98,3.93,7.23.08,11.57-1.37,1.54-2.87,3.64-2.95,5.54-.36,8.41-.94,9.25-9.34,9.89v12.49h26.43c0-2.67,0-5.36,0-8.05,0-6.16-.16-12.33.13-18.48.03-.54.34-.97.78-1.36,1.28-1.17,3.3-1.18,4.49.09.27.29.45.61.46,1,.25,9.7.15,19.4.13,29.1,0,3.15-1.98,3.89-4.71,3.88-7.73-.05-15.47-.01-23.21-.01-1.42,0-2.84,0-4.53,0v5.67c.83.11,1.82.36,2.8.36,10.75.03,21.5-.07,32.25.08,2.8.04,3.56-.91,3.55-3.61-.06-46.28-.06-92.56,0-138.84,0-2.52-.72-3.39-3.35-3.38-61.23.07-122.45.05-183.68.06-.63,0-1.26.09-2.28.16-.1,1.53-.27,2.91-.27,4.3-.04,6.69.11,13.38-.17,20.05-.01.3-.14.59-.33.89-1.16,1.74-3.83,1.74-4.97-.02-.19-.29-.3-.58-.31-.87C0,22.67.03,14.8.17,6.94.24,3.07,2.67.67,6.51.19c1.16-.15,2.35-.12,3.53-.12C70.49.06,130.93.09,191.37,0c4.21,0,7.67.84,10.12,4.44v148.67ZM145.49,128.14c3.2-6.99,8.68-8,14.61-7.38q1.05-7.99,6.39-15.5c-4.46-3.01-6.87-7.22-6.07-12.87.07-.47-1.14-1.66-1.63-1.59-5.71.78-9.8-1.91-13.38-6.61-3.77,5.33-8.66,7.5-15.25,6.45,1.44,6.73-1.33,11.35-6.28,15.29,5.56,3.7,7.4,8.59,6.35,15.05,6.65-1.15,11.66.61,15.26,7.16ZM150.75,165.01v-34.34c-3.6,2.93-7.06,3.09-10.48.14v34.2h10.48Z" style="fill:#0d0d0d; stroke-width:0px;"/><path d="M100.77,54.78c19.91,0,39.82,0,59.74,0,1.17,0,2.56-.27,3.46.26.95.55,1.88,1.88,1.95,2.93.05.77-1.15,1.96-2.06,2.37-1,.45-2.31.28-3.48.28-39.69.01-79.39,0-119.08,0-1.05,0-2.29.28-3.09-.18-1.07-.62-2.49-1.87-2.45-2.8.04-.98,1.48-2.15,2.58-2.74.81-.44,2.05-.12,3.1-.12,19.78,0,39.56,0,59.34,0Z" style="fill:#0d0d0d; stroke-width:0px;"/><path d="M89.2,36.75c15.85,0,31.7,0,47.55,0,1.18,0,2.56-.32,3.48.19,1.06.59,2.22,1.86,2.36,2.95.1.82-1.21,2.15-2.19,2.65-.96.48-2.3.24-3.48.24-31.83,0-63.66,0-95.49,0-.13,0-.26,0-.39,0-2.29-.1-5.29.5-5.37-2.94-.08-3.46,2.86-3.08,5.2-3.09,10.22-.01,20.43,0,30.65,0,5.89,0,11.79,0,17.68,0Z" style="fill:#0d0d0d; stroke-width:0px;"/><path d="M45.87,115.22c-1.06,3.24-2.11,6.32-3.06,9.43-.71,2.32-2.35,3.5-4.39,2.34-.9-.52-1.34-2.84-1.11-4.2,1.57-9.12,3.47-18.19,5.04-27.31.37-2.14.72-4.32,3.11-4.02,1.13.14,2.58,2.27,2.9,3.72,1.16,5.23,1.78,10.58,2.85,15.83.42,2.07,1.48,4,2.65,7.04,1.65-2.28,2.49-3.69,3.58-4.87.9-.98,2.09-2.33,3.14-2.33.96,0,2.37,1.44,2.78,2.54,1.1,2.95,3.34,3.43,5.96,3.44,5.9,0,11.8,0,17.69-.04,2.09-.01,4.2.11,4.26,2.82.06,2.69-1.96,2.99-4.11,2.98-5.9-.03-11.8.19-17.69-.08-3.15-.14-6.26-1.09-10.24-1.84-6.04,3.82-8.45,3.04-13.36-5.45Z" style="fill:#0d0d0d; stroke-width:0px;"/><path d="M73.62,72.78c11.25,0,22.51,0,33.76,0,2.14,0,4.6-.19,4.7,2.75.11,2.93-2.24,3.01-4.46,3.01-22.51-.01-45.01.02-67.52-.07-1.39,0-3.26-.51-4.06-1.48-1.6-1.96.22-4.17,3.42-4.19,11.38-.05,22.77-.02,34.15-.02Z" style="fill:#0d0d0d; stroke-width:0px;"/><path d="M156.81,105.92c-.08,6.37-5.22,11.36-11.61,11.26-6.31-.09-11.43-5.35-11.32-11.62.11-6.22,5.5-11.45,11.69-11.33,6.31.12,11.32,5.33,11.25,11.69ZM151.01,105.9c.1-2.95-2.35-5.52-5.36-5.64-3.16-.13-5.59,2.05-5.75,5.16-.17,3.23,2.31,5.92,5.46,5.94,2.94.02,5.55-2.5,5.65-5.45Z" style="fill:#0d0d0d; stroke-width:0px;"/><path d="M242.94,35.47h7.72c8.19,0,12.07,5.92,12.07,17.48,0,12.61-3.45,19.59-12.7,19.59h-7.1v-37.07ZM246.07,69.78h3.77c7.36,0,9.64-5.92,9.64-16.64s-2.87-14.88-9.59-14.88h-3.83v31.52Z" style="fill:#0d0d0d; stroke-width:0px;"/><path d="M270.66,59.23c0,6.09,1.11,11.1,5.77,11.1s5.35-4.6,5.5-5.4h3.05c-.06.65-.89,8.12-8.57,8.12s-8.85-7.37-8.85-14.16c0-8.67,2.85-14.21,9.1-14.21,6.93,0,8.54,5.93,8.54,12.67,0,.36,0,1.13-.06,1.89h-14.48ZM282.12,56.67c0-5.49-1.26-9.29-5.5-9.29-5.54,0-5.8,7.45-5.89,9.29h11.4Z" style="fill:#0d0d0d; stroke-width:0px;"/><path d="M291.89,64.79c.23,3.34,2.01,5.6,5.35,5.6s4.95-2.08,4.95-4.87c0-3.17-1.68-4.57-5.41-6.05-5.36-2.1-7.04-4.04-7.04-7.81s2.22-7,7.46-7c5.72,0,7.47,3.87,7.52,7.53h-3.05c-.09-1.43-.47-4.89-4.58-4.89-2.95,0-4.23,1.8-4.23,4.23s.94,3.55,4.95,5.12c5.1,2.01,7.51,3.85,7.51,8.64s-3.04,7.74-8.26,7.74-8.06-3.23-8.24-8.24h3.08Z" style="fill:#0d0d0d; stroke-width:0px;"/><path d="M326.29,64.52c-.11,1.17-.74,8.52-8.36,8.52-6.91,0-8.84-6.35-8.84-14.25s2.54-14.12,9.21-14.12c7.57,0,7.98,7.21,7.99,8.36h-3.16c-.05-1.14-.52-5.64-4.84-5.64s-6.04,4.77-6.04,11.37c0,7.17,1.72,11.56,5.8,11.56,4.34,0,4.92-4.39,5.13-5.8h3.11Z" style="fill:#0d0d0d; stroke-width:0px;"/><path d="M346.5,68.12c0,1.86.15,3.7.22,4.42h-2.82c-.15-.64-.27-2.2-.27-3.33-1,2.42-3.16,3.82-6.6,3.82-5.27,0-7.12-4.09-7.12-7.85,0-4.8,3.22-8.69,10.5-8.69,1.42,0,2.22,0,3.1.1v-3.9c0-2.35-.48-5.38-4.56-5.38-4.55,0-4.79,3.31-4.95,5.16h-3c.11-3.88,1.98-7.81,8.03-7.81,5.12,0,7.47,2.55,7.47,7.54v15.91ZM343.57,59.19c-.7-.11-1.52-.15-2.97-.15-5.36,0-7.61,2.59-7.61,5.95,0,2.85,1.53,5.35,4.69,5.35,4.31,0,5.89-2.99,5.89-9.42v-1.72Z" style="fill:#0d0d0d; stroke-width:0px;"/><path d="M353.37,54.48c0-4.32,0-7.39-.05-9.36h2.96c.05.8.12,2.13.12,5.04,1.22-3.39,3.95-5.39,7.28-5.44v3.34c-4.81.25-7.24,3.84-7.24,8.82v15.67h-3.06v-18.06Z" style="fill:#0d0d0d; stroke-width:0px;"/><path d="M383.32,70.97c0,6.99-1.54,12.16-9.24,12.16-6.81,0-8.28-4.6-8.44-7.42h3.14c.11,1.76,1.23,4.71,5.39,4.71,5.05,0,6.11-3.65,6.11-9.45v-2.99c-.95,3-3.35,4.53-6.58,4.53-5.42,0-8.25-4.53-8.25-13.35,0-10.05,3.75-14.48,8.85-14.48,3.75,0,5.46,1.84,5.98,3.84-.04-1.36.12-2.87.18-3.4h2.92c-.05,1.34-.06,4.13-.06,7.79v18.06ZM368.63,59.12c0,7.03,1.99,10.6,5.73,10.6,4.65,0,5.99-4.63,5.99-11.21,0-7.03-1.12-11.05-5.59-11.05-4.02,0-6.12,4.17-6.12,11.66Z" style="fill:#0d0d0d; stroke-width:0px;"/><path d="M405.03,68.12c0,1.86.15,3.7.22,4.42h-2.82c-.15-.64-.27-2.2-.27-3.33-1,2.42-3.16,3.82-6.6,3.82-5.27,0-7.12-4.09-7.12-7.85,0-4.8,3.22-8.69,10.5-8.69,1.42,0,2.22,0,3.1.1v-3.9c0-2.35-.48-5.38-4.56-5.38-4.55,0-4.79,3.31-4.95,5.16h-3c.11-3.88,1.98-7.81,8.03-7.81,5.12,0,7.47,2.55,7.47,7.54v15.91ZM402.11,59.19c-.7-.11-1.52-.15-2.97-.15-5.36,0-7.61,2.59-7.61,5.95,0,2.85,1.53,5.35,4.69,5.35,4.31,0,5.89-2.99,5.89-9.42v-1.72Z" style="fill:#0d0d0d; stroke-width:0px;"/><path d="M411.91,54.48c0-4.32,0-7.39-.05-9.36h2.96c.05.8.12,2.13.12,5.04,1.22-3.39,3.95-5.39,7.28-5.44v3.34c-4.81.25-7.24,3.84-7.24,8.82v15.67h-3.06v-18.06Z" style="fill:#0d0d0d; stroke-width:0px;"/><path d="M261.36,127.87c-.16,2.26-1.18,10.58-9.69,10.58-9.62,0-10.2-10.86-10.2-19.4,0-10.33,2.6-18.7,10.67-18.7,8.6,0,9.01,8.35,9.08,10.36h-3.2c-.06-1.25-.35-7.46-5.95-7.46-6.46,0-7.31,9.04-7.31,15.79,0,8.13.93,16.54,7.01,16.54,5.31,0,6.21-5.67,6.38-7.71h3.21Z" style="fill:#0d0d0d; stroke-width:0px;"/><path d="M268.64,124.63c0,6.09,1.11,11.1,5.77,11.1s5.35-4.6,5.5-5.4h3.05c-.06.65-.89,8.12-8.57,8.12s-8.85-7.37-8.85-14.16c0-8.67,2.85-14.21,9.1-14.21,6.93,0,8.54,5.93,8.54,12.67,0,.36,0,1.13-.06,1.89h-14.48ZM280.1,122.07c0-5.49-1.26-9.29-5.5-9.29-5.54,0-5.8,7.45-5.89,9.29h11.4Z" style="fill:#0d0d0d; stroke-width:0px;"/><path d="M288.52,119.88c0-4.32,0-7.39-.05-9.36h2.96c.05.8.12,2.13.12,5.04,1.22-3.39,3.95-5.39,7.28-5.44v3.34c-4.81.25-7.24,3.84-7.24,8.82v15.67h-3.06v-18.06Z" style="fill:#0d0d0d; stroke-width:0px;"/><path d="M301.05,110.52h3.97v-7.48h3.01v7.48h4.98v2.71h-4.98v19.13c0,1.99.46,3.28,2.56,3.28.65,0,1.58-.05,2.08-.15v2.43c-.84.32-2.1.42-3,.42-2.78,0-4.65-1.2-4.65-5.28v-19.81h-3.97v-2.71Z" style="fill:#0d0d0d; stroke-width:0px;"/><path d="M317.13,110.52h3.06v27.43h-3.06v-27.43ZM317.14,99.11h3.06v5.45h-3.06v-5.45Z" style="fill:#0d0d0d; stroke-width:0px;"/><path d="M327.76,137.94v-24.72h-3.72v-2.71h3.72v-4.2c0-3.84,1.24-7.5,6.04-7.5.67,0,1.58.12,2.09.28v2.82c-.49-.11-1.16-.25-1.93-.25-2.3,0-3.15,1.48-3.15,4.6v4.25h4.47v2.71h-4.47v24.72h-3.06Z" style="fill:#0d0d0d; stroke-width:0px;"/><path d="M338.99,110.52h3.06v27.43h-3.06v-27.43ZM339,99.11h3.06v5.45h-3.06v-5.45Z" style="fill:#0d0d0d; stroke-width:0px;"/><path d="M364.71,129.92c-.11,1.17-.74,8.52-8.36,8.52-6.91,0-8.84-6.35-8.84-14.25s2.54-14.12,9.21-14.12c7.57,0,7.98,7.21,7.99,8.36h-3.16c-.05-1.14-.52-5.64-4.84-5.64s-6.04,4.77-6.04,11.37c0,7.17,1.72,11.56,5.8,11.56,4.34,0,4.92-4.39,5.13-5.8h3.11Z" style="fill:#0d0d0d; stroke-width:0px;"/><path d="M384.92,133.52c0,1.86.15,3.7.22,4.42h-2.82c-.15-.64-.27-2.2-.27-3.33-1,2.42-3.16,3.82-6.6,3.82-5.27,0-7.12-4.09-7.12-7.85,0-4.8,3.22-8.69,10.5-8.69,1.42,0,2.22,0,3.1.1v-3.9c0-2.35-.48-5.38-4.56-5.38-4.55,0-4.79,3.31-4.95,5.16h-3c.11-3.88,1.98-7.81,8.03-7.81,5.12,0,7.47,2.55,7.47,7.54v15.91ZM382,124.59c-.7-.11-1.52-.15-2.97-.15-5.36,0-7.61,2.59-7.61,5.95,0,2.85,1.53,5.35,4.69,5.35,4.31,0,5.89-2.99,5.89-9.42v-1.72Z" style="fill:#0d0d0d; stroke-width:0px;"/><path d="M408.17,99.11v32.01c0,2.44,0,5.19.05,6.82h-2.97c-.06-.71-.13-2.67-.13-3.98-.86,2.55-2.64,4.47-6.58,4.47-5.67,0-8.16-4.72-8.16-14.51,0-8.89,3.41-13.85,8.94-13.85,3.77,0,5.15,1.68,5.78,3.12v-14.09h3.06ZM393.56,123.94c0,8.5,2.04,11.67,5.67,11.67,4.63,0,5.92-4.04,5.92-11.79,0-8.63-1.34-10.95-5.6-10.95-3.51,0-5.98,3.22-5.98,11.07Z" style="fill:#0d0d0d; stroke-width:0px;"/><path d="M431.84,123.87c0,9.53-3.09,14.57-9.08,14.57s-9.14-4.86-9.14-14.5,3.57-13.88,9.24-13.88,8.97,4.59,8.97,13.8ZM416.78,123.98c0,8.06,2.19,11.73,5.97,11.73s5.93-3.76,5.93-11.8c0-7.38-2.02-11.1-5.94-11.1-3.7,0-5.96,3.16-5.96,11.17Z" style="fill:#0d0d0d; stroke-width:0px;"/></g></svg>