<?xml version="1.0" encoding="UTF-8"?><svg id="Layer_2" xmlns="http://www.w3.org/2000/svg" viewBox="0 0 479 433.54"><g id="people"><path id="teacher" d="M189.38,151.86c4.21,1.29,8.18,2.04,11.75,3.68,10.29,4.71,16.53,12.59,18.46,24.01,3.94,23.38,8.2,46.71,12.26,70.07.32,1.84.79,4.13.01,5.56-.82,1.5-3.54,3.42-4.58,3.01-2.03-.8-4.53-2.86-4.98-4.82-1.89-8.08-3.09-16.32-4.52-24.5-2.86-16.37-5.67-32.74-8.56-49.1-1.6-9.07-10.21-16.24-20.36-17.12-5.07-.44-9.35.34-13.84,3.77-20.98,16.01-48.91,15.93-69.78-.23-5.06-3.92-10.04-4.13-15.46-3.27-10.62,1.69-16.99,8.64-18.81,19.24-4.05,23.54-8.29,47.04-12.41,70.57-.66,3.74-2.3,6.44-6.49,5.56-3.97-.84-4.21-4.04-3.61-7.4,4.23-23.86,8.49-47.71,12.65-71.58,2.54-14.58,11.66-22.6,25.49-26.09,1.49-.38,3-.72,4.95-1.19-9.61-15.57-12.61-32-7.71-49.46,3.62-12.91,10.94-23.46,21.73-31.48,21.56-16.02,51.08-15.19,71.77,1.72,18.06,14.76,31.6,45.76,12.05,79.08ZM140.45,69.75c-26.7-.11-48.53,21.67-48.66,48.54-.13,27.05,21.63,49.37,48.32,49.55,26.26.18,48.46-22.05,48.62-48.69.17-27.35-21.27-49.28-48.28-49.39Z" style="fill:#ffe081; stroke-width:0px;"/><path id="student1" d="M390.76,92.77c8.09,1.98,11.27,7.41,12.24,15.12,1.05,8.42,2.83,16.74,4.39,25.09.42,2.27.1,4.13-2.36,4.54-2.31.39-3.22-1.25-3.58-3.35-1.6-9.18-3.27-18.35-4.88-27.54-.88-5.04-3.27-7.57-8.08-7.8-1.49-.07-3.26.54-4.49,1.41-8.81,6.22-20.6,6.27-29.36-.04-4.58-3.3-11.17-.73-12.22,4.88-1.72,9.16-3.3,18.35-4.94,27.53-.15.82-.06,1.86-.54,2.39-.93,1.02-2.15,2.4-3.3,2.45-1.94.09-2.79-1.6-2.48-3.51.9-5.62,1.86-11.24,2.84-16.85.68-3.88,1.64-7.72,2.1-11.62.78-6.57,4.4-10.51,10.57-12.37.39-.12.75-.32,1.13-.48-5.58-13.43-3.24-24.93,6.57-32.5,8.87-6.84,21.17-6.8,30.02.09,9.72,7.58,12.06,19.14,6.39,32.55ZM369.17,98.53c10.49.04,18.67-7.94,18.76-18.32.09-10.49-8.18-19.05-18.48-19.12-10.26-.07-18.8,8.48-18.83,18.84-.03,10.33,8.18,18.56,18.55,18.6Z" style="fill:#ffe081; stroke-width:0px;"/><path id="student2" d="M390.76,223.56c8.09,1.98,11.27,7.41,12.24,15.12,1.05,8.42,2.83,16.74,4.39,25.09.42,2.27.1,4.13-2.36,4.54-2.31.39-3.22-1.25-3.58-3.35-1.6-9.18-3.27-18.35-4.88-27.54-.88-5.04-3.27-7.57-8.08-7.8-1.49-.07-3.26.54-4.49,1.41-8.81,6.22-20.6,6.27-29.36-.04-4.58-3.3-11.17-.73-12.22,4.88-1.72,9.16-3.3,18.35-4.94,27.53-.15.82-.06,1.86-.54,2.39-.93,1.02-2.15,2.4-3.3,2.45-1.94.09-2.79-1.6-2.48-3.51.9-5.62,1.86-11.24,2.84-16.85.68-3.88,1.64-7.72,2.1-11.62.78-6.57,4.4-10.51,10.57-12.37.39-.12.75-.32,1.13-.48-5.58-13.43-3.24-24.93,6.57-32.5,8.87-6.84,21.17-6.8,30.02.09,9.72,7.58,12.06,19.14,6.39,32.55ZM369.17,229.33c10.49.04,18.67-7.94,18.76-18.32.09-10.49-8.18-19.05-18.48-19.12-10.26-.07-18.8,8.48-18.83,18.84-.03,10.33,8.18,18.56,18.55,18.6Z" style="fill:#ffe081; stroke-width:0px;"/></g><g id="computer"><path id="monitor" d="M188.8,16.23C190.93,2.67,194.12,0,207.46,0c21.14,0,42.28,0,63.42,0,14.29,0,16.62,1.87,19.75,16.23,1.92,0,3.96,0,6,0,49.56,0,99.12-.04,148.67.02,16.53.02,28.88,9.22,32.65,24.33.83,3.31,1,6.85,1,10.29.05,88.2.07,176.4.02,264.6-.01,21.27-13.21,34.33-34.39,34.33-46.44,0-92.88,0-139.32,0h-7.04c4.07,19.53,8.03,38.55,12.05,57.89,9.24,0,18.08-.26,26.89.07,10.24.39,16.48,10.4,11.34,18.57-1.89,3-5.88,4.93-9.26,6.64-1.83.92-4.42.45-6.67.45-58.22.02-116.44.02-174.67,0-2.25,0-4.52,0-6.74-.32-6.36-.9-11.06-6.27-11.09-12.47-.04-6.4,4.81-12.27,11.4-12.67,8.29-.5,16.63-.11,24.93-.46,1.54-.06,4.07-1.59,4.35-2.83,3.89-17.74,7.48-35.56,11.12-53.35.07-.32-.04-.68-.11-1.51h-5.58c-50.6,0-101.2,0-151.79,0-21.16,0-34.36-13.09-34.37-34.34C-.01,227.26-.01,139.06.03,50.86c.01-21.51,13.2-34.6,34.72-34.62,49.21-.03,98.42,0,147.64,0,2.06,0,4.12,0,6.42,0ZM239.39,339.58c68.1,0,136.2-.25,204.29.19,15.56.1,25.46-9.98,25.41-25.34-.25-87.5-.11-175.01-.13-262.51,0-17.09-8.46-25.48-25.58-25.48-51.46,0-102.93,0-154.39,0-8.53,0-9.07-.55-9.13-9.17-.04-6.74-.42-7.15-6.99-7.16-22.01-.02-44.01-.01-66.02,0-7.34,0-7.36.04-7.44,7.65-.07,7.78-.96,8.69-8.66,8.69-51.81,0-103.62,0-155.43,0-16.76,0-25.27,8.48-25.28,25.25-.02,87.5.14,175.01-.14,262.51-.05,15.25,9.51,25.69,25.71,25.58,67.92-.48,135.85-.2,203.77-.2ZM199.45,366.52c-.57,2.36-1.1,4.33-1.52,6.33-2.72,12.86-5.57,25.7-8.03,38.61-.9,4.71-3.26,6.35-7.83,6.24-8.14-.19-16.28-.13-24.42,0-2.71.04-6.47-1.19-6.89,3.04-.06.63,4.39,2.49,6.75,2.49,58.55.14,117.1.14,175.65-.01,2.26,0,4.52-1.81,6.78-2.78-2.31-.93-4.62-2.66-6.94-2.67-35.34-.17-70.68-.12-106.01-.13-1.9,0-4.16.47-5.61-.37-1.64-.95-3.39-3.08-3.52-4.82-.1-1.42,1.84-3.47,3.38-4.37,1.32-.78,3.37-.42,5.09-.42,22.52-.02,45.04-.01,67.56-.01,1.82,0,3.64,0,6,0-3.82-18.26-7.64-35.63-10.98-53.09-.77-4.02-2.36-4.85-6.09-4.83-24.94.15-49.89.19-74.83-.02-4.75-.04-6.79,1.3-5.78,6.64,1.64,0,3.33,0,5.02,0,9.35,0,18.71-.01,28.06.01,3.44.01,6.4.98,6.44,5.08.04,4.09-2.74,5.18-6.31,5.08-1.56-.04-3.12,0-4.68,0-10.37,0-20.73,0-31.28,0Z" style="fill:#313131; stroke-width:0px;"/><path id="screen" d="M239.46,34.72c67.75,0,135.49,0,203.24,0,13.57,0,18.2,4.56,18.2,17.93,0,70.52,0,141.04,0,211.56,0,13.1-4.71,17.8-17.85,17.8-135.67,0-271.33,0-407,0-13.22,0-17.93-4.66-17.93-17.72,0-70.69,0-141.38,0-212.07,0-12.75,4.77-17.49,17.59-17.5,67.92,0,135.84,0,203.76,0ZM269.56,271.81h5.52c55.97,0,111.94,0,167.92,0,7.4,0,7.65-.25,7.65-7.58,0-70.53,0-141.06,0-211.59,0-7.57-.09-7.66-7.48-7.66-135.86,0-271.72,0-407.58,0-7.04,0-7.22.2-7.22,7.39,0,70.53,0,141.06,0,211.59,0,7.71.14,7.85,7.9,7.85,72.43,0,144.87,0,217.3,0h5.74c0-2.84,0-4.9,0-6.97,0-53.03,0-106.05,0-159.08,0-1.39-.02-2.77.01-4.16.08-3.42,1.51-5.76,5.23-5.71,3.44.05,4.8,2.33,4.98,5.47.09,1.55.03,3.12.03,4.68,0,53.03,0,106.05,0,159.08,0,2.04,0,4.07,0,6.69Z" style="fill:#313131; stroke-width:0px;"/><path id="button" d="M261.35,310.81c0,12.27-9.88,22.31-21.92,22.27-12.03-.04-21.82-10.12-21.77-22.41.05-12.01,9.74-21.84,21.65-21.97,12.07-.14,22.04,9.87,22.03,22.11ZM251.08,311.2c.16-6.64-4.97-12.16-11.4-12.27-6.2-.11-11.53,5.06-11.75,11.4-.24,6.72,4.69,12.25,11.14,12.48,6.5.24,11.85-4.94,12.01-11.61Z" style="fill:#e0af7c; stroke-width:0px;"/><path id="camara" d="M238.99,27.81c-4.14,0-8.29.08-12.43-.02-3.28-.08-5.69-2.01-4.95-5.14.44-1.86,3.14-4.43,4.94-4.53,8.6-.47,17.26-.48,25.87,0,1.81.1,4.52,2.65,4.97,4.51.75,3.13-1.66,5.08-4.94,5.16-4.48.11-8.97.03-13.46.03Z" style="fill:#e0af7c; stroke-width:0px;"/><path id="separator1" d="M269.33,44.05c-.18-3.93-1.54-6.79-4.98-6.86-3.73-.07-5.15,2.87-5.23,7.15-.03,1.73-.01,3.48-.01,5.22-.01,66.42-.01,132.84-.01,199.26v1.6h10.25V49.91c0-1.95.06-3.91-.02-5.86Z" style="fill:#313131; stroke-width:0px;"/><path id="separator2" d="M279.03,163.34c-3.14.21-5.41,1.59-5.43,5.03-.02,3.72,2.33,5.14,5.75,5.18,1.4.02,2.78-.01,4.16-.02l160.57-1.31c1.86-.02,3.35-1.53,3.34-3.39l-.03-3.51c-.02-1.86-1.53-3.35-3.39-3.34l-160.3,1.31c-1.55.01-3.12-.04-4.67.06Z" style="fill:#313131; stroke-width:0px;"/></g></svg>