<svg xmlns="http://www.w3.org/2000/svg" id="Capa_1" enable-background="new 0 0 536.32 536.32" height="512" viewBox="0 0 536.32 536.32" width="512">
<g><path fill="#30303b" d="m532.857 128.744-121.965-89.243c-2.01-1.48-4.575-1.987-6.997-1.383l-146.517 37.164c-4.485 1.143-7.194 5.705-6.051 10.189.479 1.88 1.596 3.536 3.16 4.684l38.797 28.323-8.38 42.484c-4.567 23.714 33.518 61.255 84.843 71.226 9.002 1.738 18.149 2.608 27.317 2.598 14.055.088 28.033-2.091 41.395-6.452 20.53-6.829 34.23-18.226 36.619-30.418l8.38-42.359 46.548-11.773c4.485-1.143 7.194-5.705 6.051-10.189-.479-1.88-1.596-3.536-3.16-4.684zm-74.118 65.947c-.964 4.902-10.055 12.569-25.516 17.723-19.522 6.111-40.265 7.235-60.333 3.268-47.135-9.176-73.447-41.06-71.226-51.534l6.746-34.733 68.042 49.942c1.433 1.056 3.164 1.628 4.944 1.634.709.005 1.415-.094 2.095-.293l81.952-20.739zm-75.416-31.172-104.535-76.422 125.4-31.759 104.409 76.38z"/><path fill="#e0af7c" d="m204.88 236.379c-2.564 1.48-4.157 4.204-4.19 7.165v149.491c.033 2.961 1.626 5.684 4.19 7.165 1.26.779 2.709 1.199 4.19 1.215 1.354.012 2.691-.304 3.896-.922l142.872-74.788c4.096-2.155 5.669-7.222 3.514-11.317-.789-1.5-2.015-2.725-3.514-3.514l-142.746-74.788c-2.6-1.343-5.713-1.232-8.212.293zm12.57 20.949 116.434 60.961-116.308 60.919z"/><path fill="#30303b" d="m511.154 448.173h-43.029c.745-2.344 1.126-4.789 1.131-7.248v-193.862c0-4.628-3.752-8.38-8.38-8.38s-8.38 3.752-8.38 8.38v193.861c-.069 4.072-3.426 7.317-7.498 7.248-.001 0-.001 0-.002 0h-370.46c-4.072.07-7.43-3.174-7.5-7.246 0-.001 0-.001 0-.002v-253.65c.069-4.072 3.426-7.317 7.498-7.248h.002 185.23c4.628 0 8.38-3.752 8.38-8.38s-3.752-8.38-8.38-8.38h-185.23c-13.319-.046-24.167 10.689-24.259 24.007v253.65c.005 2.46.386 4.904 1.131 7.248h-43.028c-4.628 0-8.38 3.752-8.38 8.38v2.095c0 18.854 14.832 39.803 34.733 39.803h450.067c19.901 0 34.733-20.949 34.733-39.803v-2.095c0-4.626-3.752-8.378-8.379-8.378zm-26.354 33.518h-450.067c-7.248 0-14.622-7.709-17.094-16.759h484.255c-2.472 9.05-9.846 16.759-17.094 16.759z"/></g></svg>