<?xml version="1.0" encoding="UTF-8"?><svg id="b" xmlns="http://www.w3.org/2000/svg" viewBox="0 0 464.6 195.85"><g id="c"><g id="d"><g id="e"><path d="M0,.12h32.44c.14,2.01.28,3.85.49,6.73,3.02-.64,6.25-.6,8.64-1.98C48.35.96,55.44-.22,63.16.03c10.68.36,21.39.15,32.09.07,8.74-.06,16.15,2.94,22.31,9.13,4.84,4.88,9.61,9.85,14.66,14.51,1.4,1.3,3.67,2.31,5.55,2.33,17.83.17,35.65.1,53.48.1,1.36,0,2.73,0,4.28,0v84.56H58.91v-41.2c-7.62-.66-14.21-3.01-20.31-6.98-1.36-.89-3.62-.4-5.88-.57v10.01H0V.12ZM124.24,26.15c.19-.34.39-.67.58-1.01-3.93-3.73-7.95-7.38-11.78-11.22-4.85-4.87-10.62-7.27-17.48-7.25-13,.03-25.99-.06-38.98.07-2.21.02-4.58.57-6.59,1.49-5.41,2.47-10.52,5.79-17.07,4.7v40.99c5.11,2.14,9.47,4.12,13.96,5.79,3.7,1.38,7.54,2.4,11.89,3.76,0-4.76-.13-8.44.04-12.11.13-2.78-.25-4.8-3.34-5.89-1.91-.67-3.47-2.32-5.36-3.65,1.59-1.92,2.86-3.45,4.1-4.95,9.9,7.13,14.69,6.99,26.59-.74,4.22,4.28,8.58,8.54,12.75,12.99,8.9,9.51,10.71,9.54,15.19,6.02,4.11-3.23,2.63-6.72-5.79-15.14-2.34-2.34-4.65-4.72-7.03-7.02-3.36-3.26-6.76-6.47-9.57-9.15,1.68-2.2,2.89-3.78,4.37-5.72,1.55,1.72,2.74,3.22,4.13,4.53,1.35,1.27,2.86,3.28,4.36,3.34,8.33.33,16.68.16,25.02.16ZM188.94,33.04h-83c4,5.82,4.63,6.17,10.77,6.17,13.76,0,27.51,0,41.27,0h8.3c-.37,11.41,5.4,16.69,16.11,16.6v24.32c-4.6,2.05-9.29,2.89-11.98,5.67-2.79,2.89-3.64,7.66-5.5,11.98h-76.48c-2.02-12.98-3.15-14.12-16.42-16.52v-25.51c5.18-.22,10.12-.68,13.62-6.19-1.27-1-2.52-2.11-3.9-3.02-.85-.56-2.04-1.33-2.84-1.11-4.46,1.19-8.85,2.64-13.4,4.05v54.83h123.45V33.04ZM90.49,55.18c-2.21,1.64-3.96,3.87-6.09,4.34-6.32,1.37-6.77,5.59-6.17,10.68.07.63.06,1.28,0,1.91-.21,2.14.33,3.33,2.76,4.07,6.21,1.9,10.55,6.15,12.47,12.39.78,2.54,2.09,2.92,4.39,2.91,19.61-.07,39.21-.07,58.82,0,2.35,0,3.58-.48,4.31-3.01,1.44-4.97,4.6-9.36,9.44-10.86,5.6-1.74,6.29-5.11,5.7-9.85-.11-.88-.08-1.79,0-2.67.2-2.16-.41-3.32-2.8-4.07-6.06-1.89-10.36-6.04-12.27-12.1-.84-2.67-2.15-3.13-4.6-3.11-11.97.11-23.93.04-35.9.06-1.2,0-2.4.11-3.26.15-.18,3.65-.32,6.75-.47,9.78,9.09-4.92,16.77-4.38,22.51,1.66,5.14,5.4,5.99,13.79,2.04,20.11-3.88,6.21-11.62,9.2-18.63,7.07-4.9-1.49-8.99-4.44-10.32-9.36-1.18-4.37-.93-9.14-1.3-13.52-8.58,5.09-14.94.03-20.63-6.57ZM25.73,65.1V6.97H6.84v58.13h18.89ZM127.21,58.93c-5.41.01-9.62,4.2-9.67,9.61-.04,5.45,4.08,9.68,9.5,9.76,5.58.08,9.92-4.22,9.87-9.78-.05-5.37-4.33-9.59-9.71-9.58Z" style="fill:#0d0d0d; stroke-width:0px;"/><path d="M97.86,195.85c-21.43-12.68-42.91-25.28-64.28-38.07-6.43-3.85-8.24-11.43-4.69-17.62,3.51-6.15,10.92-8.38,17.57-4.91,11.04,5.76,21.94,11.77,33.31,17.89,2.35-6.06,7.44-7.93,13.05-9.34,10.48-2.64,20.77-6.19,31.36-8.16,8.03-1.5,16.4-1.36,24.63-1.45,2.34-.02,4.77,1.58,7.03,2.69,2.25,1.1,4.35,2.51,7.11,4.13v-10.07h32.76v64.91h-32.88v-4.75c-4.31,1.68-8.27,3.21-12.23,4.75h-52.75ZM131.3,160.69c-12.85,3.33-25.23,6.72-37.71,9.68-5.23,1.24-10.57-2.14-13.28-7.01-1.03-1.85-2.59-3.72-4.39-4.77-6.26-3.66-12.72-6.97-19.1-10.4-4.59-2.47-9.16-4.98-13.8-7.37-2.68-1.38-5.59-1.1-7.26,1.28-1.22,1.74-1.92,4.52-1.47,6.53.39,1.75,2.49,3.44,4.24,4.5,18.83,11.4,37.7,22.74,56.69,33.88,2.38,1.4,5.48,2.14,8.27,2.19,11.97.24,23.95-.2,35.91.21,7.49.26,14.32-1.39,21.04-4.35,1.93-.85,2.66-1.83,2.63-3.94-.1-9.93-.03-19.87-.07-29.8,0-.96-.08-2.45-.65-2.78-4.81-2.78-9.5-6.59-14.72-7.66-6.07-1.24-12.84-.98-18.95.32-12.67,2.69-25.12,6.44-37.63,9.86-4.13,1.13-6.15,4.34-5.35,7.97.8,3.6,4.01,5.51,8.32,4.63,3.48-.71,6.91-1.73,10.35-2.64,8.32-2.2,16.65-4.42,25.22-6.69.58,2.18,1.07,4,1.7,6.36ZM169.83,189.04h19.1v-51.67h-19.1v51.67Z" style="fill:#0d0d0d; stroke-width:0px;"/><path d="M150.62,195.85c3.96-1.54,7.92-3.08,12.23-4.75v4.75h-12.23Z" style="fill:#fff; stroke-width:0px;"/></g><g id="f"><path d="M239.87,46h9.05c5.75,0,9.6,3.68,9.6,10.15s-3.46,10.72-10.23,10.72h-5.27v16.51h-3.15v-37.39ZM243.02,64.11h4.95c4.76,0,7.31-2.58,7.31-7.97,0-4.27-2.24-7.35-6.79-7.35h-5.47v15.32Z" style="fill:#031017; stroke-width:0px;"/><path d="M278.02,78.93c0,1.87.16,3.73.22,4.46h-2.84c-.16-.64-.28-2.22-.28-3.36-1.01,2.44-3.19,3.85-6.65,3.85-5.31,0-7.18-4.12-7.18-7.92,0-4.84,3.25-8.76,10.58-8.76,1.43,0,2.24,0,3.12.1v-3.94c0-2.37-.49-5.42-4.6-5.42-4.59,0-4.82,3.34-4.99,5.21h-3.02c.11-3.91,2-7.87,8.1-7.87,5.16,0,7.53,2.57,7.53,7.61v16.04ZM275.08,69.92c-.71-.11-1.53-.16-2.99-.16-5.4,0-7.67,2.61-7.67,6,0,2.88,1.54,5.39,4.73,5.39,4.34,0,5.93-3.02,5.93-9.5v-1.74Z" style="fill:#031017; stroke-width:0px;"/><path d="M301.53,81.8c0,7.04-1.55,12.26-9.32,12.26-6.87,0-8.35-4.64-8.52-7.48h3.17c.11,1.78,1.24,4.75,5.44,4.75,5.1,0,6.16-3.68,6.16-9.53v-3.02c-.96,3.03-3.38,4.57-6.64,4.57-5.46,0-8.32-4.56-8.32-13.46,0-10.13,3.79-14.61,8.92-14.61,3.78,0,5.5,1.85,6.03,3.87-.04-1.37.12-2.9.18-3.42h2.95c-.06,1.35-.06,4.16-.06,7.85v18.22ZM286.71,69.85c0,7.09,2.01,10.69,5.78,10.69,4.69,0,6.04-4.67,6.04-11.3,0-7.09-1.13-11.15-5.64-11.15-4.05,0-6.17,4.21-6.17,11.76Z" style="fill:#031017; stroke-width:0px;"/><path d="M323.42,78.93c0,1.87.16,3.73.22,4.46h-2.84c-.16-.64-.28-2.22-.28-3.36-1.01,2.44-3.19,3.85-6.65,3.85-5.31,0-7.18-4.12-7.18-7.92,0-4.84,3.25-8.76,10.58-8.76,1.43,0,2.24,0,3.12.1v-3.94c0-2.37-.49-5.42-4.6-5.42-4.59,0-4.82,3.34-4.99,5.21h-3.02c.11-3.91,2-7.87,8.1-7.87,5.16,0,7.53,2.57,7.53,7.61v16.04ZM320.47,69.92c-.71-.11-1.53-.16-2.99-.16-5.4,0-7.67,2.61-7.67,6,0,2.88,1.54,5.39,4.73,5.39,4.34,0,5.93-3.02,5.93-9.5v-1.74Z" style="fill:#031017; stroke-width:0px;"/><path d="M330.36,65.17c0-4.36,0-7.46-.05-9.44h2.98c.06.81.12,2.15.12,5.08,1.23-3.42,3.98-5.43,7.34-5.48v3.36c-4.85.25-7.3,3.87-7.3,8.9v15.8h-3.08v-18.21Z" style="fill:#031017; stroke-width:0px;"/><path d="M262.06,132.67c0-7.18.11-14.07.22-17.9h-.07c-1.4,6.23-5.28,22.86-8.47,34.58h-3.16c-2.4-9.91-6.47-27.85-7.9-34.64h-.13c.22,4.34.38,12.73.38,19.11v15.53h-3.04v-37.38h4.69c3.41,12.25,6.78,27.9,7.72,32.58h.05c.68-3.66,4.79-20.76,8.15-32.58h4.69v37.38h-3.14v-16.68Z" style="fill:#031017; stroke-width:0px;"/><path d="M273.82,135.92c0,6.14,1.11,11.19,5.82,11.19s5.39-4.64,5.55-5.45h3.08c-.06.66-.9,8.19-8.64,8.19s-8.93-7.44-8.93-14.28c0-8.75,2.87-14.33,9.17-14.33,6.99,0,8.61,5.98,8.61,12.77,0,.36,0,1.14-.06,1.91h-14.6ZM285.37,133.34c0-5.54-1.27-9.37-5.55-9.37-5.59,0-5.85,7.51-5.94,9.37h11.49Z" style="fill:#031017; stroke-width:0px;"/><path d="M293.86,130.22c0-5.65-.05-7.32-.05-8.53h2.99c.06.67.13,1.74.13,3.91.96-2.4,2.94-4.37,6.72-4.37s7.12,2.06,7.12,8.42v19.7h-3.13v-19.16c0-3.62-1.32-6.13-4.68-6.13-4.23,0-5.97,2.86-5.97,9.09v16.2h-3.13v-19.12Z" style="fill:#031017; stroke-width:0px;"/><path d="M318.64,141.53c.23,3.37,2.02,5.65,5.39,5.65s4.99-2.1,4.99-4.91c0-3.2-1.69-4.61-5.45-6.1-5.4-2.11-7.1-4.07-7.1-7.88s2.24-7.06,7.52-7.06c5.76,0,7.53,3.9,7.58,7.59h-3.08c-.09-1.44-.47-4.93-4.62-4.93-2.97,0-4.26,1.82-4.26,4.26s.95,3.58,4.99,5.16c5.14,2.02,7.58,3.88,7.58,8.72s-3.07,7.81-8.33,7.81-8.13-3.25-8.31-8.31h3.1Z" style="fill:#031017; stroke-width:0px;"/><path d="M353.59,141.98c0,3.27,0,6.07.05,7.37h-2.94c-.12-.79-.17-1.83-.18-3.94-.9,2.81-3.34,4.43-6.73,4.43-2.94,0-6.91-1.08-6.91-8.25v-19.9h3.13v19.14c0,3.84,1.14,6.24,4.63,6.24,3.29,0,5.82-2.09,5.82-8.66v-16.71h3.13v20.29Z" style="fill:#031017; stroke-width:0px;"/><path d="M375.69,144.89c0,1.87.16,3.73.22,4.46h-2.84c-.16-.64-.28-2.22-.28-3.36-1.01,2.44-3.19,3.85-6.65,3.85-5.31,0-7.18-4.12-7.18-7.92,0-4.84,3.25-8.76,10.58-8.76,1.43,0,2.24,0,3.12.1v-3.94c0-2.37-.49-5.42-4.6-5.42-4.59,0-4.82,3.34-4.99,5.21h-3.02c.11-3.91,2-7.87,8.1-7.87,5.16,0,7.53,2.57,7.53,7.61v16.04ZM372.75,135.88c-.71-.11-1.53-.16-2.99-.16-5.4,0-7.67,2.61-7.67,6,0,2.88,1.54,5.39,4.73,5.39,4.34,0,5.93-3.02,5.93-9.5v-1.74Z" style="fill:#031017; stroke-width:0px;"/><path d="M382.63,149.34v-39.16h3.08v39.16h-3.08Z" style="fill:#031017; stroke-width:0px;"/><path d="M392.63,121.69h3.08v27.66h-3.08v-27.66ZM392.64,110.18h3.08v5.5h-3.08v-5.5Z" style="fill:#031017; stroke-width:0px;"/><path d="M419.15,110.18v32.28c0,2.46,0,5.23.05,6.88h-2.99c-.06-.71-.13-2.69-.13-4.01-.87,2.57-2.67,4.51-6.63,4.51-5.72,0-8.22-4.76-8.22-14.64,0-8.96,3.44-13.96,9.01-13.96,3.8,0,5.19,1.69,5.83,3.15v-14.21h3.08ZM404.42,135.22c0,8.57,2.06,11.76,5.71,11.76,4.66,0,5.97-4.08,5.97-11.89,0-8.7-1.35-11.04-5.65-11.04-3.54,0-6.03,3.24-6.03,11.17Z" style="fill:#031017; stroke-width:0px;"/><path d="M441.1,144.89c0,1.87.16,3.73.22,4.46h-2.84c-.16-.64-.28-2.22-.28-3.36-1.01,2.44-3.19,3.85-6.65,3.85-5.31,0-7.18-4.12-7.18-7.92,0-4.84,3.25-8.76,10.58-8.76,1.43,0,2.24,0,3.12.1v-3.94c0-2.37-.49-5.42-4.6-5.42-4.59,0-4.82,3.34-4.99,5.21h-3.02c.11-3.91,2-7.87,8.1-7.87,5.16,0,7.53,2.57,7.53,7.61v16.04ZM438.15,135.88c-.71-.11-1.53-.16-2.99-.16-5.4,0-7.67,2.61-7.67,6,0,2.88,1.54,5.39,4.73,5.39,4.34,0,5.93-3.02,5.93-9.5v-1.74Z" style="fill:#031017; stroke-width:0px;"/><path d="M464.55,110.18v32.28c0,2.46,0,5.23.05,6.88h-2.99c-.06-.71-.13-2.69-.13-4.01-.87,2.57-2.67,4.51-6.63,4.51-5.72,0-8.22-4.76-8.22-14.64,0-8.96,3.44-13.96,9.01-13.96,3.8,0,5.19,1.69,5.83,3.15v-14.21h3.08ZM449.82,135.22c0,8.57,2.06,11.76,5.71,11.76,4.66,0,5.97-4.08,5.97-11.89,0-8.7-1.35-11.04-5.65-11.04-3.54,0-6.03,3.24-6.03,11.17Z" style="fill:#031017; stroke-width:0px;"/></g></g></g></svg>