<?xml version="1.0" encoding="UTF-8"?><svg id="b" xmlns="http://www.w3.org/2000/svg" viewBox="0 0 439.07 215.21"><g id="c"><g id="d"><path d="M0,193.25c2.9-6.71,9.07-5.26,14.14-5.53,0-30.57,0-60.87,0-91.17,0-.98-.26-2.15.18-2.89.64-1.07,1.94-2.64,2.73-2.51,1.16.19,2.46,1.49,3.06,2.65.52,1,.19,2.46.19,3.72,0,27.16,0,54.32,0,81.49,0,7.45,1.31,8.76,8.84,8.77,52.22,0,104.45,0,156.67,0,7.74,0,8.97-1.25,8.97-9.06,0-33.88,0-67.77,0-101.65,0-7.72-1.3-9.02-9-9.02-7.13,0-14.26,0-21.42,0q.83,6.29,6.82,6.3c4.2,0,8.4.05,12.6,0,3.09-.04,4.6,1.19,4.59,4.48-.06,22.54-.04,45.08-.02,67.63,0,2.32-.43,4.51-3.19,4.43-2.76-.08-2.99-2.37-2.99-4.63.02-20.16.01-40.32.01-60.48,0-1.52,0-3.03,0-4.82h-14.75c4.06,43.71-32.79,67.76-60.02,67.46-33.08-.36-63.94-29.45-59.64-67.48h-14.65v93.95h149.06c0-4.31-.27-8.36.14-12.35.15-1.51,1.86-2.87,2.85-4.29,1.05,1.37,2.91,2.68,3.01,4.12.37,5.01.12,10.07.15,15.11.01,2.82-1.4,4.08-4.16,4.03-1.54-.03-3.08,0-4.62,0-48.72,0-97.45,0-146.17,0-6.5,0-6.65-.15-6.65-6.57,0-31.5,0-63,0-94.51,0-5.6.41-6.01,5.92-6.05,3.78-.03,7.6-.34,11.33.08,4.7.53,6.68-1.44,6.8-6.27-8.57,0-17.19-.19-25.78.1-3.3.11-4.57,2.87-4.69,5.98-.09,2.24.26,4.56-.25,6.68-.27,1.11-1.86,2.44-3.03,2.63-.79.12-2.63-1.54-2.67-2.46-.18-3.74-.36-7.63.43-11.24,1.11-5.08,5.46-7.89,11.43-8.04,6.44-.16,12.94-.61,19.3.09,7.06.79,11.06-1.87,12.69-7.69-3,0-6.38.48-9.53-.18-1.94-.4-4.62-2.23-5.07-3.92-1.27-4.8-1.26-9.72,3.37-13.34.82-.64,1.36-2.03,1.44-3.12.2-2.79.32-5.63-.02-8.38-.23-1.85-.99-3.82-2.08-5.32-2.19-3.02-1.05-5.96,3.24-6.99,7.88-1.89,15.82-3.56,23.71-5.4C83.89,5.08,94.45,2.52,105.03,0c1.68,0,3.36,0,5.04,0,7.31,1.77,14.61,3.53,21.91,5.32,2.2.54,4.43,1.64,3.27,4.19-.52,1.14-3.18,2.16-4.63,1.89-6.59-1.2-13.08-2.99-19.65-4.31-2.13-.43-4.49-.52-6.6-.06-13.25,2.88-26.45,5.95-39.66,8.98-.93.21-1.81.65-3.58,1.3,12.24,2.52,23.46,4.85,34.68,7.13,4.1.83,8.43,2.8,12.29,2.14,15.07-2.58,30-6,44.97-9.11-2.62-1.36-5.42-1.72-7.89-2.82-1.12-.5-2.16-2.47-2.14-3.76.01-.76,2.32-2.3,3.33-2.11,6.86,1.32,13.69,2.85,20.41,4.72,1.26.35,2.7,2.51,2.79,3.9.07,1.14-1.55,2.9-2.82,3.47-2.13.95-4.58,1.19-6.9,1.68-8.51,1.77-8.33,1.76-8.56,10.29-.22,8.42-.74,16.79,6.43,23.12.6.53.97,1.39,1.26,2.16,1.17,3.13,3.45,3.8,6.61,3.71,7.27-.22,14.56-.12,21.83-.05,9.35.09,13.52,4.3,13.53,13.69.03,20.86,0,41.71,0,62.57,0,16.45,0,32.89,0,49.77,1.4,0,3.19-.04,4.98,0,6.57.19,9.1,2.76,9.16,9.27.12,11.69-6.25,18.02-18.19,18.02-59.07,0-118.14-.1-177.21.11-9.76.04-16.45-3.32-19.7-12.71v-9.24ZM104.92,141.96c.39-1.95,1.13-3.61.95-5.17-.41-3.61-.11-8.29-2.22-10.5-3.36-3.5-5.93-7.02-5.33-11.58.56-4.22,2.19-8.48,4.26-12.23.73-1.33,4.13-1.7,6.29-1.65,8.09.2,13.6,7.17,21.34,8.47.25.04.47.3.71.43,8.26,4.6,5.58,15.37.2,19.13-3.72,2.6-4.43,6.19-6.44,9.83,35.35-10.97,47.74-56.65,25.01-82.65-6.15.55-9.89,4.08-13.21,8.64-1.98,2.72-7.13,1.49-8.32-1.69-.52-1.39-.17-3.1-.68-4.5-.34-.95-1.49-1.6-2.28-2.38q.7,8.24-9.16,12.8c2.02,4.41.57,7.48-3.86,9.31-.62.25-1.23.73-1.64,1.25-3.13,4.02-6.02,8.35-12.86,7.44,1.48,2.25,3.08,3.65,3.28,5.23.31,2.39.41,5.44-.84,7.19-.88,1.24-4.16,1.13-6.32.96-1.72-.13-3.5-1.03-5-1.98-2.22-1.41-4.49-2.93-6.24-4.86-2.58-2.84-4.3-6.55-7.15-9.02-4.63-4.02-5.97-8.89-4.48-14.31,1.32-4.81,1.92-9.44.6-14.21-.37-1.32-1.33-2.48-2.02-3.72-.97.65-2.16,1.12-2.89,1.97-15.19,17.93-16.94,43.55-4.03,63.23,9.92,15.12,24.16,23.1,42.32,24.55ZM80.25,194.11c-23.98,0-47.75-.01-71.51.06-.77,0-1.94.66-2.23,1.32-2.09,4.77,1.77,11.78,7.09,12.84,2.04.41,4.17.45,6.26.45,58.48.02,116.96.02,175.45.02,1.26,0,2.52.03,3.77-.08,5.98-.52,9.02-3.63,9.68-9.53.39-3.52-.19-5.25-4.52-5.2-21.82.24-43.65.11-65.48.11-1.34,0-2.67,0-3.9,0-1.43,8.41-4.32,10.9-12.21,10.92-10.07.03-20.15.03-30.22,0-7.85-.02-10.74-2.51-12.17-10.91ZM145.15,25.61c-4.76.96-8.77,1.54-12.64,2.6-15.17,4.14-30.28,6.05-45.7.95-5.23-1.73-10.84-2.32-16.87-3.56,0,5.9.11,11.18-.05,16.46-.08,2.65.54,3.9,3.48,4.44,10.44,1.92,20.81,4.25,31.22,6.35,1.47.3,3.09.46,4.54.18,11.25-2.2,22.48-4.48,33.68-6.89.9-.19,2.21-1.47,2.23-2.28.19-5.85.1-11.71.1-18.26ZM118.29,60.9c.13-.51.26-1.01.4-1.52-1.34-.31-2.83-1.14-4.01-.83-5.01,1.34-9.85.98-14.85-.21-7.1-1.68-14.3-2.93-20.7-4.2-.67,5.7-.93,11.01-1.99,16.15-.9,4.34,0,7.36,3.43,10.27,2.57,2.18,4.68,5.11,6.36,8.06,1.51,2.67,3.04,4.42,6.32,3.94-.51-1.85-1.12-3.56-1.44-5.33-.7-3.91,1.47-6.95,5.38-6.59,3.4.32,5.12-1.66,7.1-3.45,1.9-1.72,3.56-3.71,5.45-5.72-1.67-6.05-1.52-6.25,8.54-10.58ZM107.42,107.24c-.86,1.78-1.66,3.38-2.42,5-1.53,3.25-.77,6.48,2.05,8.04,3.56,1.96,4.37,4.8,4.62,8.23.31,4.28.51,8.57.79,13.28,3.05-3.78,6.38-7.07,8.64-10.97,1.56-2.69,2.78-5,5.59-6.82,1.67-1.08,2.16-4.43,2.42-6.84.05-.49-3.26-1.38-5.03-2.03-1.5-.55-3.89-.59-4.41-1.61-2.68-5.3-7.72-5.23-12.24-6.27ZM54.55,22.42c1.03,6.07-2.4,12.39,4.09,16.81,1.17.8,1.46,3.26,1.65,5.01.27,2.43.07,4.91.07,8.28,1.32-2.55,3.15-4.5,3.26-6.55.37-7.09.14-14.21.14-21.65-3-.62-5.8-1.2-9.21-1.91ZM128.26,194.42h-41.43c-.06,3.22,1.64,4.26,4.22,4.27,11.02.02,22.03.02,33.05,0,2.6,0,4.26-1.1,4.16-4.26ZM54.31,47.71c-.52-2.1-.83-3.79-1.44-5.35-.11-.29-2.04-.34-2.15-.08-.67,1.63-1.08,3.37-1.67,5.44h5.26Z" style="fill:#0d0d0d; stroke-width:0px;"/><path d="M54.55,22.42c3.41.71,6.21,1.29,9.21,1.91,0,7.43.23,14.56-.14,21.65-.11,2.05-1.93,4-3.26,6.55,0-3.37.2-5.85-.07-8.28-.19-1.75-.49-4.21-1.65-5.01-6.48-4.42-3.06-10.74-4.09-16.81Z" style="fill:#fff; stroke-width:0px;"/><path d="M54.31,47.71h-5.26c.6-2.07,1-3.81,1.67-5.44.1-.25,2.04-.2,2.15.08.61,1.57.92,3.25,1.44,5.35Z" style="fill:#fff; stroke-width:0px;"/></g><g id="e"><path d="M252.78,57.15h8.97c5.7,0,9.52,3.65,9.52,10.07s-3.43,10.63-10.15,10.63h-5.23v16.37h-3.12v-37.07ZM255.9,75.1h4.91c4.72,0,7.25-2.56,7.25-7.9,0-4.24-2.22-7.29-6.74-7.29h-5.42v15.2Z" style="fill:#031017; stroke-width:0px;"/><path d="M276.18,94.22v-38.84h3.06v38.84h-3.06Z" style="fill:#031017; stroke-width:0px;"/><path d="M301.02,89.8c0,1.86.15,3.7.22,4.42h-2.82c-.15-.64-.27-2.2-.27-3.33-1,2.42-3.16,3.82-6.6,3.82-5.27,0-7.12-4.09-7.12-7.85,0-4.8,3.22-8.69,10.5-8.69,1.42,0,2.22,0,3.1.1v-3.9c0-2.35-.48-5.38-4.56-5.38-4.55,0-4.79,3.31-4.95,5.16h-3c.11-3.88,1.98-7.81,8.03-7.81,5.12,0,7.47,2.55,7.47,7.54v15.91ZM298.1,80.87c-.7-.11-1.52-.15-2.97-.15-5.36,0-7.61,2.59-7.61,5.95,0,2.85,1.53,5.35,4.69,5.35,4.31,0,5.89-2.99,5.89-9.42v-1.72Z" style="fill:#031017; stroke-width:0px;"/><path d="M304.35,66.79h3.97v-7.48h3.01v7.48h4.98v2.71h-4.98v19.13c0,1.99.46,3.28,2.56,3.28.65,0,1.58-.05,2.08-.15v2.43c-.84.32-2.1.42-3,.42-2.78,0-4.65-1.19-4.65-5.28v-19.81h-3.97v-2.71Z" style="fill:#031017; stroke-width:0px;"/><path d="M335.41,89.8c0,1.86.15,3.7.22,4.42h-2.82c-.15-.64-.27-2.2-.27-3.33-1,2.42-3.16,3.82-6.6,3.82-5.27,0-7.12-4.09-7.12-7.85,0-4.8,3.22-8.69,10.5-8.69,1.42,0,2.22,0,3.1.1v-3.9c0-2.35-.48-5.38-4.56-5.38-4.55,0-4.79,3.31-4.95,5.16h-3c.11-3.88,1.98-7.81,8.03-7.81,5.12,0,7.47,2.55,7.47,7.54v15.91ZM332.49,80.87c-.7-.11-1.52-.15-2.97-.15-5.36,0-7.61,2.59-7.61,5.95,0,2.85,1.53,5.35,4.69,5.35,4.31,0,5.89-2.99,5.89-9.42v-1.72Z" style="fill:#031017; stroke-width:0px;"/><path d="M342.5,94.22v-24.72h-3.72v-2.71h3.72v-4.2c0-3.84,1.24-7.5,6.04-7.5.67,0,1.58.12,2.09.28v2.82c-.49-.11-1.16-.25-1.93-.25-2.3,0-3.15,1.48-3.15,4.6v4.25h4.47v2.71h-4.47v24.72h-3.06Z" style="fill:#031017; stroke-width:0px;"/><path d="M369.95,80.15c0,9.53-3.09,14.57-9.08,14.57s-9.14-4.86-9.14-14.5,3.57-13.88,9.24-13.88,8.97,4.59,8.97,13.8ZM354.9,80.26c0,8.06,2.19,11.73,5.97,11.73s5.93-3.76,5.93-11.8c0-7.38-2.02-11.1-5.94-11.1-3.7,0-5.96,3.16-5.96,11.17Z" style="fill:#031017; stroke-width:0px;"/><path d="M375.37,76.16c0-4.32,0-7.39-.05-9.36h2.96c.05.8.12,2.13.12,5.04,1.22-3.39,3.95-5.39,7.28-5.44v3.34c-4.81.25-7.24,3.84-7.24,8.82v15.67h-3.06v-18.06Z" style="fill:#031017; stroke-width:0px;"/><path d="M389.33,75.02c0-4.67,0-6.89-.05-8.23h2.96c.11.9.13,2.37.13,3.78,1.03-2.49,2.93-4.22,6.17-4.22,2.83,0,4.9,1.19,5.72,4.22.92-2.32,3.07-4.22,6.61-4.22,3.23,0,6.52,1.53,6.52,7.87v20h-3.04v-19.42c0-3-.85-5.66-4.24-5.66-3.83,0-5.18,3.53-5.18,7.33v17.75h-3.05v-19.31c0-3.73-1.23-5.76-4.15-5.76-3.55,0-5.33,3.45-5.33,7.79v17.28h-3.05v-19.2Z" style="fill:#031017; stroke-width:0px;"/><path d="M438.85,89.8c0,1.86.15,3.7.22,4.42h-2.82c-.15-.64-.27-2.2-.27-3.33-1,2.42-3.16,3.82-6.6,3.82-5.27,0-7.12-4.09-7.12-7.85,0-4.8,3.22-8.69,10.5-8.69,1.42,0,2.22,0,3.1.1v-3.9c0-2.35-.48-5.38-4.56-5.38-4.55,0-4.79,3.31-4.95,5.16h-3c.11-3.88,1.98-7.81,8.03-7.81,5.12,0,7.47,2.55,7.47,7.54v15.91ZM435.93,80.87c-.7-.11-1.52-.15-2.97-.15-5.36,0-7.61,2.59-7.61,5.95,0,2.85,1.53,5.35,4.69,5.35,4.31,0,5.89-2.99,5.89-9.42v-1.72Z" style="fill:#031017; stroke-width:0px;"/><path d="M268.43,141.35h-12.54v15.46h13.88l-.46,2.82h-16.52v-37.07h16.28v2.83h-13.18v13.14h12.54v2.83Z" style="fill:#031017; stroke-width:0px;"/><path d="M290.54,120.79v32.01c0,2.44,0,5.19.05,6.82h-2.97c-.06-.71-.13-2.67-.13-3.98-.86,2.55-2.64,4.47-6.58,4.47-5.67,0-8.16-4.72-8.16-14.51,0-8.89,3.41-13.85,8.94-13.85,3.77,0,5.15,1.68,5.78,3.12v-14.09h3.06ZM275.93,145.62c0,8.5,2.04,11.67,5.67,11.67,4.63,0,5.92-4.05,5.92-11.79,0-8.63-1.34-10.95-5.6-10.95-3.51,0-5.98,3.22-5.98,11.07Z" style="fill:#031017; stroke-width:0px;"/><path d="M313.93,152.32c0,3.24,0,6.02.05,7.3h-2.91c-.12-.78-.17-1.81-.18-3.9-.9,2.79-3.32,4.4-6.67,4.4-2.92,0-6.86-1.07-6.86-8.18v-19.74h3.1v18.98c0,3.81,1.13,6.18,4.59,6.18,3.26,0,5.77-2.07,5.77-8.59v-16.57h3.1v20.12Z" style="fill:#031017; stroke-width:0px;"/><path d="M336.51,151.6c-.11,1.17-.74,8.52-8.36,8.52-6.91,0-8.84-6.35-8.84-14.25s2.54-14.12,9.21-14.12c7.57,0,7.98,7.21,7.99,8.36h-3.16c-.05-1.14-.52-5.64-4.84-5.64s-6.04,4.77-6.04,11.37c0,7.17,1.72,11.56,5.8,11.56,4.34,0,4.92-4.39,5.13-5.8h3.11Z" style="fill:#031017; stroke-width:0px;"/><path d="M356.72,155.2c0,1.86.15,3.7.22,4.42h-2.82c-.15-.64-.27-2.2-.27-3.33-1,2.42-3.16,3.82-6.6,3.82-5.27,0-7.12-4.09-7.12-7.85,0-4.8,3.22-8.69,10.5-8.69,1.42,0,2.22,0,3.1.1v-3.9c0-2.35-.48-5.38-4.56-5.38-4.55,0-4.79,3.31-4.95,5.16h-3c.11-3.88,1.98-7.8,8.03-7.8,5.12,0,7.47,2.55,7.47,7.54v15.91ZM353.79,146.27c-.7-.11-1.52-.16-2.97-.16-5.36,0-7.61,2.59-7.61,5.95,0,2.85,1.53,5.35,4.69,5.35,4.31,0,5.89-2.99,5.89-9.42v-1.72Z" style="fill:#031017; stroke-width:0px;"/><path d="M360.05,132.19h3.97v-7.48h3.01v7.48h4.98v2.71h-4.98v19.13c0,1.99.46,3.28,2.56,3.28.65,0,1.58-.04,2.08-.15v2.43c-.84.32-2.1.42-3,.42-2.78,0-4.65-1.2-4.65-5.28v-19.81h-3.97v-2.71Z" style="fill:#031017; stroke-width:0px;"/><path d="M376.13,132.19h3.06v27.43h-3.06v-27.43ZM376.14,120.79h3.06v5.45h-3.06v-5.45Z" style="fill:#031017; stroke-width:0px;"/><path d="M386.48,132.19c2.46,9.3,5.52,20.88,6.04,23.78h.05c.32-2.57,5.12-19.05,6.32-23.78h3.1l-7.9,27.43h-3.33l-7.51-27.43h3.23Z" style="fill:#031017; stroke-width:0px;"/><path d="M420.32,155.2c0,1.86.15,3.7.22,4.42h-2.82c-.15-.64-.27-2.2-.27-3.33-1,2.42-3.16,3.82-6.6,3.82-5.27,0-7.12-4.09-7.12-7.85,0-4.8,3.22-8.69,10.5-8.69,1.42,0,2.22,0,3.1.1v-3.9c0-2.35-.48-5.38-4.56-5.38-4.55,0-4.79,3.31-4.95,5.16h-3c.11-3.88,1.98-7.8,8.03-7.8,5.12,0,7.47,2.55,7.47,7.54v15.91ZM417.39,146.27c-.7-.11-1.52-.16-2.97-.16-5.36,0-7.61,2.59-7.61,5.95,0,2.85,1.53,5.35,4.69,5.35,4.31,0,5.89-2.99,5.89-9.42v-1.72Z" style="fill:#031017; stroke-width:0px;"/></g></g></svg>