<?xml version="1.0" encoding="UTF-8"?><svg id="Layer_2" xmlns="http://www.w3.org/2000/svg" viewBox="0 0 449.83 407.14"><g id="people"><path id="student" d="M177.85,142.61c3.95,1.21,7.68,1.92,11.04,3.45,9.67,4.42,15.53,11.83,17.33,22.54,3.7,21.96,7.7,43.86,11.51,65.8.3,1.73.75,3.88.01,5.22-.77,1.41-3.32,3.21-4.3,2.83-1.91-.75-4.25-2.68-4.68-4.53-1.77-7.59-2.9-15.32-4.25-23.01-2.68-15.37-5.32-30.75-8.04-46.11-1.51-8.52-9.59-15.25-19.12-16.08-4.77-.41-8.78.32-13,3.54-19.7,15.03-45.93,14.96-65.53-.21-4.75-3.68-9.43-3.88-14.51-3.07-9.98,1.58-15.95,8.11-17.67,18.07-3.81,22.1-7.79,44.18-11.66,66.27-.62,3.51-2.16,6.05-6.1,5.22-3.73-.79-3.95-3.79-3.39-6.95,3.97-22.41,7.97-44.8,11.88-67.22,2.39-13.69,10.95-21.23,23.94-24.5,1.4-.35,2.81-.68,4.64-1.12-9.02-14.62-11.84-30.05-7.24-46.45,3.4-12.13,10.27-22.03,20.41-29.56,20.25-15.04,47.97-14.26,67.4,1.62,16.96,13.86,29.68,42.97,11.32,74.26ZM131.89,65.5c-25.07-.1-45.57,20.35-45.7,45.58-.12,25.4,20.31,46.36,45.38,46.53,24.67.17,45.51-20.71,45.66-45.73.16-25.68-19.98-46.28-45.34-46.38Z" style="fill:#ffe081; stroke-width:0px;"/><path id="teacher" d="M375.88,143.87c12.69,3.11,17.68,11.62,19.19,23.7,1.65,13.2,4.44,26.26,6.88,39.35.66,3.55.16,6.47-3.7,7.13-3.63.62-5.04-1.96-5.61-5.25-2.51-14.4-5.13-28.78-7.65-43.18-1.38-7.91-5.13-11.88-12.67-12.23-2.33-.11-5.11.85-7.04,2.22-13.82,9.76-32.3,9.84-46.05-.07-7.19-5.18-17.52-1.15-19.17,7.65-2.69,14.37-5.17,28.78-7.75,43.17-.23,1.28-.1,2.92-.85,3.74-1.46,1.6-3.37,3.76-5.18,3.84-3.05.14-4.38-2.51-3.9-5.51,1.42-8.82,2.92-17.63,4.46-26.43,1.06-6.08,2.57-12.1,3.3-18.22,1.22-10.31,6.9-16.48,16.58-19.4.61-.18,1.18-.5,1.77-.75-8.75-21.05-5.08-39.1,10.31-50.96,13.91-10.72,33.21-10.67,47.07.14,15.24,11.88,18.92,30.01,10.01,51.05ZM342.02,152.9c16.45.06,29.28-12.46,29.42-28.73.14-16.46-12.83-29.88-28.98-29.98-16.09-.11-29.48,13.29-29.53,29.55-.04,16.2,12.83,29.1,29.09,29.16Z" style="fill:#ffe081; stroke-width:0px;"/></g><g id="computer"><path id="monitor" d="M177.31,15.24C179.3,2.51,182.29,0,194.83,0c19.85,0,39.71,0,59.56,0,13.42,0,15.61,1.76,18.54,15.24,1.8,0,3.72,0,5.63,0,46.54,0,93.08-.03,139.62.02,15.52.02,27.12,8.66,30.66,22.85.78,3.11.93,6.44.94,9.66.05,82.83.07,165.66.02,248.49-.01,19.97-12.4,32.24-32.29,32.24-43.61,0-87.22,0-130.83,0h-6.61c3.82,18.34,7.54,36.2,11.32,54.36,8.68,0,16.98-.25,25.25.06,9.61.36,15.48,9.76,10.65,17.44-1.77,2.82-5.52,4.63-8.7,6.23-1.72.87-4.15.42-6.26.42-54.68.02-109.35.02-164.03,0-2.11,0-4.25,0-6.33-.3-5.97-.85-10.38-5.89-10.41-11.71-.03-6.01,4.52-11.52,10.71-11.9,7.78-.47,15.62-.1,23.41-.43,1.45-.06,3.83-1.49,4.08-2.66,3.66-16.66,7.02-33.39,10.44-50.1.06-.3-.04-.64-.1-1.42h-5.24c-47.52,0-95.03,0-142.55,0-19.88,0-32.27-12.29-32.28-32.25C-.01,213.42,0,130.59.03,47.76.04,27.56,12.43,15.26,32.63,15.25c46.21-.03,92.43,0,138.64,0,1.93,0,3.87,0,6.03,0ZM224.81,318.9c63.95,0,127.9-.24,191.85.18,14.61.09,23.91-9.37,23.86-23.8-.24-82.17-.11-164.35-.12-246.52,0-16.05-7.94-23.93-24.02-23.93-48.33,0-96.66,0-144.99,0-8.01,0-8.52-.52-8.57-8.61-.04-6.33-.39-6.72-6.57-6.72-20.67-.01-41.33,0-62,0-6.9,0-6.92.03-6.98,7.18-.07,7.31-.9,8.16-8.13,8.16-48.65,0-97.31,0-145.96,0-15.74,0-23.73,7.97-23.74,23.72-.02,82.18.13,164.35-.14,246.53-.05,14.32,8.93,24.12,24.15,24.02,63.78-.45,127.57-.19,191.36-.19ZM187.3,344.2c-.54,2.21-1.04,4.07-1.43,5.94-2.55,12.08-5.23,24.13-7.54,36.26-.84,4.42-3.06,5.96-7.35,5.86-7.64-.18-15.29-.12-22.94,0-2.54.04-6.07-1.12-6.47,2.86-.06.6,4.12,2.33,6.34,2.34,54.98.13,109.97.14,164.95-.01,2.13,0,4.25-1.7,6.37-2.61-2.17-.87-4.34-2.49-6.52-2.5-33.19-.16-66.37-.11-99.56-.12-1.79,0-3.9.44-5.27-.35-1.54-.89-3.19-2.9-3.31-4.53-.1-1.33,1.72-3.26,3.17-4.11,1.24-.73,3.16-.39,4.78-.39,21.15-.02,42.3-.01,63.44-.01,1.71,0,3.42,0,5.64,0-3.59-17.15-7.17-33.46-10.31-49.85-.72-3.78-2.22-4.55-5.72-4.53-23.42.14-46.85.17-70.28-.02-4.46-.04-6.37,1.22-5.42,6.24,1.54,0,3.13,0,4.71,0,8.78,0,17.57-.01,26.35.01,3.23,0,6.01.92,6.04,4.77.03,3.84-2.57,4.87-5.92,4.77-1.46-.04-2.93,0-4.39,0-9.74,0-19.47,0-29.37,0Z" style="fill:#313131; stroke-width:0px;"/><path id="window" d="M224.87,32.6c63.62,0,127.24,0,190.86,0,12.74,0,17.09,4.28,17.09,16.84,0,66.22,0,132.45,0,198.67,0,12.31-4.42,16.72-16.77,16.72-127.4,0-254.81,0-382.21,0-12.42,0-16.84-4.37-16.84-16.64,0-66.39,0-132.77,0-199.16,0-11.97,4.48-16.43,16.52-16.43,63.78,0,127.57,0,191.35,0ZM253.14,255.26h5.18c52.56,0,105.13,0,157.69,0,6.95,0,7.19-.23,7.19-7.12,0-66.23,0-132.47,0-198.7,0-7.11-.08-7.2-7.02-7.2-127.59,0-255.17,0-382.76,0-6.61,0-6.78.18-6.78,6.94,0,66.23,0,132.47,0,198.7,0,7.24.13,7.37,7.42,7.37,68.02,0,136.05,0,204.07,0h5.39c0-2.67,0-4.61,0-6.55,0-49.8,0-99.59,0-149.39,0-1.3-.02-2.6.01-3.91.07-3.21,1.42-5.41,4.91-5.36,3.23.05,4.51,2.18,4.68,5.14.08,1.46.03,2.93.03,4.39,0,49.8,0,99.59,0,149.39,0,1.91,0,3.83,0,6.28Z" style="fill:#313131; stroke-width:0px;"/><path id="button" d="M245.43,291.88c0,11.53-9.28,20.95-20.58,20.91-11.3-.04-20.5-9.5-20.45-21.04.05-11.28,9.14-20.51,20.34-20.64,11.33-.13,20.7,9.27,20.69,20.77ZM235.79,292.24c.15-6.24-4.66-11.42-10.7-11.52-5.82-.1-10.82,4.76-11.03,10.71-.22,6.31,4.41,11.5,10.46,11.72,6.1.22,11.13-4.64,11.28-10.9Z" style="fill:#e0af7c; stroke-width:0px;"/><path id="separator" d="M224.44,26.12c-3.89,0-7.78.08-11.67-.02-3.08-.08-5.34-1.89-4.65-4.83.41-1.75,2.95-4.16,4.64-4.25,8.08-.45,16.21-.45,24.29,0,1.7.09,4.25,2.49,4.66,4.24.7,2.94-1.56,4.77-4.63,4.85-4.21.11-8.43.03-12.64.03Z" style="fill:#e0af7c; stroke-width:0px;"/></g></svg>