<svg id="Layer_2" xmlns="http://www.w3.org/2000/svg" viewBox="0 0 496.61 417.92">
  <style>.cls-1{fill:#30303b}</style>
  <path class="cls-1" d="M299.68 71.73c22.96 14.4 39.06 38.76 41.99 67.04 9.36 4.38 19.76 6.89 30.78 6.89 40.23 0 72.83-32.61 72.83-72.83S412.68 0 372.45 0c-39.84.01-72.16 32.04-72.77 71.73zM251.97 220.86c40.23 0 72.83-32.61 72.83-72.83s-32.61-72.83-72.83-72.83-72.85 32.61-72.85 72.83 32.62 72.83 72.85 72.83zm30.89 4.96h-61.8c-51.42 0-93.25 41.84-93.25 93.26v75.58l.19 1.18 5.21 1.63c49.07 15.33 91.7 20.45 126.8 20.45 68.54 0 108.26-19.54 110.71-20.79l4.87-2.46h.52v-75.59c.02-51.42-41.81-93.26-93.24-93.26zm120.5-75.19h-61.32c-.66 24.54-11.14 46.63-27.7 62.52 45.71 13.59 79.15 55.98 79.15 106.04v23.29c60.55-2.22 95.44-19.38 97.74-20.53l4.87-2.47h.52v-75.6c0-51.41-41.83-93.25-93.25-93.25zm-279.19-4.96c14.25 0 27.5-4.16 38.73-11.24 3.57-23.28 16.05-43.63 33.88-57.49.07-1.36.2-2.71.2-4.09C196.99 32.62 164.38.02 124.17.02S51.33 32.62 51.33 72.85s32.6 72.82 72.83 72.82zm65.41 67.48c-16.49-15.81-26.92-37.79-27.68-62.17-2.27-.17-4.52-.35-6.84-.35h-61.8c-51.42 0-93.25 41.83-93.25 93.25v75.59l.19 1.17 5.21 1.64c39.37 12.29 74.5 17.95 105.02 19.74v-22.83c.01-50.06 33.44-92.44 79.16-106.04z"/>
</svg>
