<?xml version="1.0" encoding="UTF-8"?><svg id="a" xmlns="http://www.w3.org/2000/svg" viewBox="0 0 36 36"><path d="m1.01,7.85c.53-1.23,1.48-1.64,2.76-1.44.01.3-.24.4-.42.54-.47.39-.69.88-.69,1.49,0,6.35,0,12.7,0,19.05,0,.61.22,1.1.69,1.49.18.15.43.25.42.54-1.28.2-2.23-.21-2.76-1.44V7.85Z" style="fill:#2e63ac; stroke-width:0px;"/><path d="m3.77,29.53c-1.03-.54-1.34-1.38-1.34-2.53.05-6.02.05-12.04,0-18.06,0-1.16.31-1.99,1.34-2.53.35,0,.7-.02,1.05-.02,9.13,0,18.25.03,27.38-.02,1.76,0,2.49,1.1,2.48,2.48-.05,6.11-.02,12.21-.02,18.32,0,1.67-.72,2.39-2.39,2.39-9.37,0-18.73,0-28.1,0-.13,0-.26-.02-.39-.03Z" style="fill:#306fc4; stroke-width:0px;"/><path d="m17.69,17.69c-1.93,0-3.86.04-5.78-.02-.47-.02-.93.03-1.4.03-.46,0-.89-.17-1.39-.04-.51.14-1.09.02-1.63.03-.33,0-.61,0-.68-.41-.04-.22-.17-.33-.41-.33-.24,0-.37.11-.42.33-.08.39-.35.43-.68.42-.48-.02-.96-.01-1.45,0-.3,0-.39-.07-.25-.38.57-1.28,1.13-2.56,1.69-3.84.09-.21.22-.32.45-.29.59.08,1.2.04,1.79.09.52.05,1.12-.03,1.68-.1.59-.07.97.11,1.1.71.02.09.1.18.26.45.13-1.32.96-1.17,1.75-1.16,1.8.02,3.59-.01,5.39.01.88.01,1.76-.03,2.64.01,1.45.07,2.89-.03,4.33-.05.43,0,.8.31,1.3.08.4-.18.95-.05,1.43-.04.2,0,.45-.09.59.17.03.06.11.18.18.09.49-.58,1.13-.12,1.69-.25.29-.07.36.13.36.39,0,1.23,0,2.45,0,3.68,0,.27-.07.41-.37.4-.48-.01-.97-.03-1.44,0-.38.03-.43-.32-.7-.49.01.38-.17.5-.51.48-.48-.03-.96-.02-1.44,0-.43.01-.8.03-.96-.53-.1-.35-.65-.32-.77.06-.14.43-.4.5-.79.48-.57-.02-1.14.02-1.69-.17-.34-.12-.55.22-.9.19-.87-.07-1.75-.02-2.63-.02-.28-.18-.13-.45-.16-.65-.07.19.08.48-.16.67Z" style="fill:#fefefe; stroke-width:0px;"/><path d="m21.13,22.09c-.3,1.11-.3,1.07-1.52,1.13-.63.03-.81-.19-.73-.77.03-.19.07-.52-.3-.4-.33.11-.98-.27-.96.4.02.65-.25.72-.77.68-.46-.03-.92-.02-1.38,0-.28,0-.53-.02-.68-.28-.24-.39-.46-.29-.7,0-.16.2-.36.28-.63.28-1.07-.01-2.14-.01-3.22,0-.34,0-.46-.1-.45-.44.02-1.25.02-2.49,0-3.74,0-.35.12-.45.46-.44,1.07.02,2.15.05,3.22-.01.56-.03.68.63,1.06.59.37-.04.52-.64,1.08-.58,1.02.11,2.05-.08,3.07.14.3.07.64-.14.98-.14,1.93.02,3.87-.06,5.8.04.94.05,1.87-.15,2.79-.02,1.06.15,2.12-.05,3.17-.02.4.01.59.08.57.54-.03.78-.01,1.56.16,2.34.2.89-.34,1.64-1.24,1.74-.84.1-1.7.23-2.55-.08-.28-.1-.67.15-1.02.15-1.9.02-3.81,0-5.71.02-.36,0-.53-.1-.5-.48.02-.21-.02-.42-.03-.64Z" style="fill:#fefefe; stroke-width:0px;"/><path d="m17.69,17.69c.02-.37.03-.75.06-1.28.34.49.13.91.26,1.26-.11,0-.21.01-.32.02Z" style="fill:#6593d3; stroke-width:0px;"/><path d="m25.46,16.78c-.41-.65-1.62-.64-1.99.03-.21.38-.53.21-.81.23-.59.04-1.17-.05-1.46-.65-.34-.69-.3-1.4.1-2.07.23-.38,1.42-.69,1.8-.51.21.1.16.29.15.46-.03.3-.27.22-.45.24-.94.06-1.27.49-1.02,1.34.1.34.33.48.67.52.35.04.44-.17.55-.43.22-.57.51-1.12.7-1.69.15-.44.46-.38.78-.39.32,0,.58,0,.71.39.28.8.62,1.58.93,2.37-.04.43-.22.47-.66.16Z" style="fill:#316fc5; stroke-width:0px;"/><path d="m8.38,13.9c.97-.24,1.07-.19,1.45.63.22.47.44.94.69,1.49.27-.65.54-1.2.73-1.77.22-.66.73-.43,1.14-.42.47,0,.28.42.29.66.02.7,0,1.4.01,2.1,0,.27-.02.46-.37.46-.34,0-.39-.16-.39-.45.01-.59,0-1.18-.1-1.8-.26.58-.52,1.16-.78,1.74-.11.25-.17.52-.57.52-.4,0-.44-.3-.55-.54-.26-.57-.51-1.14-.76-1.71-.06,0-.11.01-.17.02v2.11c-.71.11-.72.11-.7-.55.03-.82-.09-1.64.06-2.46Z" style="fill:#3270c5; stroke-width:0px;"/><path d="m25.46,16.78c.26.1.54.32.66-.16.33-.59.05-1.23.16-1.83.06-.31-.26-.78.23-.9.51-.12,1.02-.09,1.29.55.21.51.56.96.95,1.41,0-.47,0-.94,0-1.41,0-.26-.11-.57.37-.58.53-.01.4.34.4.61,0,.66.02,1.31,0,1.97,0,.2.16.55-.22.57-.32.02-.7.17-.93-.25-.38-.66-.79-1.31-1.31-1.95,0,.41,0,.82,0,1.23-.02,1.15.18.97-1.02.98-.2,0-.51.15-.57-.24Z" style="fill:#3170c5; stroke-width:0px;"/><path d="m8.38,13.9c0,.78.03,1.57-.01,2.35-.03.51.12.74.65.66-.64.09-1.32.47-1.77-.41-.18-.35-1.54-.19-1.75.16-.06.09-.08.22-.16.28-.21.16-.49.15-.68.04-.17-.11.02-.32.08-.46.3-.75.65-1.48.93-2.24.15-.42.41-.49.8-.48.37,0,.6.08.74.46.28.77.63,1.52,1,2.4.18-1.01-.08-1.9.17-2.76Z" style="fill:#3270c5; stroke-width:0px;"/><path d="m16.35,15.41s0-.04,0-.07c.07-.5-.25-1.31.17-1.45.76-.24,1.66-.23,2.44.09.49.2.5.76.24,1.13-.23.34-.19.5,0,.8.12.2.07.51.09.76.02.24-.07.36-.33.36-.26,0-.35-.09-.34-.35.01-.46-.07-.81-.66-.83-.58-.02-1.01.02-.86.77.05.26-.06.4-.36.4-.28,0-.4-.1-.39-.38.01-.41,0-.83,0-1.25Z" style="fill:#3170c5; stroke-width:0px;"/><path d="m13.26,15.46c0-1.65,0-1.67,1.68-1.64.3,0,.86-.28.88.31.03.7-.58.26-.89.38-.29.12-.88-.28-.86.32.02.51.56.16.86.24.14.04.3.01.46,0,.23-.01.37.05.38.32,0,.27-.12.34-.36.33-.35,0-.7,0-1.05,0-.21,0-.32.05-.33.29,0,.25.07.36.33.36.37-.01.74,0,1.12,0,.24,0,.36.06.36.33,0,.25-.1.35-.35.35-.63,0-1.27,0-1.9,0-.25,0-.35-.1-.34-.35.01-.42,0-.83,0-1.25Z" style="fill:#3371c5; stroke-width:0px;"/><path d="m20.62,15.46c0,.39,0,.79,0,1.18,0,.26-.06.4-.36.4-.3,0-.43-.09-.43-.41.02-.81.01-1.62,0-2.42,0-.33.15-.4.44-.41.31,0,.36.16.35.42,0,.41,0,.83,0,1.24Z" style="fill:#3774c6; stroke-width:0px;"/><path d="m10.59,20.92c0-1.63,0-1.59,1.62-1.64.85-.03,1.6.02,2.08.84.13.21.32.26.45.01.5-.93,1.34-.89,2.21-.84.46.03.92,0,1.37.06.49.07.85.33.83.92-.02.59-.32.93-.91,1-.15.02-.31.05-.46.03-.63-.08-1.01.08-.87.82.05.26-.04.4-.35.41-.66.01-1.32.06-1.71-.65-.21-.38-.46-.42-.72-.03-.39.59-.95.79-1.64.68-.11-.02-.22,0-.33,0q-1.59,0-1.59-1.6Z" style="fill:#316fc4; stroke-width:0px;"/><path d="m19.5,20.86q0-1.6,1.58-1.59c.17,0,.35,0,.52,0,.84.05,1.21.72.75,1.41-.16.24-.23.34.01.57.25.24.18.61.19.93,0,.33-.21.32-.44.33-.25.01-.36-.08-.35-.34.01-.44,0-.82-.61-.87-.83-.06-.86-.07-.9.77-.01.29-.07.45-.4.44-.36,0-.36-.22-.36-.48,0-.39,0-.79,0-1.18Z" style="fill:#3170c5; stroke-width:0px;"/><path d="m24.29,19.27c.22,0,.44-.02.65,0,.23.03.61-.19.63.31.02.5-.35.33-.59.35-.28.02-.57,0-.85,0-.18,0-.35-.01-.36.25,0,.25.1.36.34.36.28,0,.57-.01.85,0,.21.01.52-.11.53.29.01.39-.28.31-.5.32-.31.01-.61,0-.92,0-.22,0-.31.11-.31.33,0,.23.11.31.32.31.37,0,.74,0,1.11,0,.22,0,.37.04.38.32,0,.28-.09.4-.37.4-.61,0-1.22,0-1.83,0-.28,0-.39-.11-.38-.39,0-.83.01-1.66,0-2.49,0-.29.12-.38.39-.37.31.01.61,0,.92,0Z" style="fill:#3371c5; stroke-width:0px;"/><path d="m26.88,22.54c-.26-.17-.83.28-.85-.35-.02-.7.58-.27.89-.38.31-.11.89.21.9-.31.01-.52-.57-.31-.9-.36-.56-.08-.97-.28-.97-.92,0-.62.32-.93.92-.97.41-.03.83-.02,1.24-.05.31-.02.42.11.42.42,0,.3-.14.37-.41.36-.35,0-.7,0-1.05,0-.15,0-.32.05-.32.25,0,.2.15.26.3.28.22.03.43.03.65.04.56.02.92.25.95.85.03.64-.23.96-.89,1.05-.28.04-.57.05-.87.07Z" style="fill:#3270c5; stroke-width:0px;"/><path d="m30.67,19.18c.24.16.72-.27.83.3.05.28.03.53-.38.5-.35-.02-.7,0-1.05,0-.18,0-.37.06-.37.28,0,.2.19.23.34.25.24.03.48.02.72.05.52.06.87.31.91.86.04.57-.25.93-.81,1.01-.5.07-1,.05-1.51.08-.25.01-.35-.09-.35-.34,0-.3.12-.38.39-.37.37.01.74,0,1.12,0,.17,0,.3-.07.33-.25.03-.23-.12-.32-.3-.35-.22-.04-.44-.04-.65-.06-.65-.07-1-.39-.98-.93.02-.6.38-.9.96-.97.26-.03.52-.03.81-.05Z" style="fill:#3270c5; stroke-width:0px;"/><path d="m24.47,14.4c.14.33.22.56.32.77.17.35.11.49-.32.49-.43,0-.57-.1-.34-.52.11-.21.2-.43.34-.74Z" style="fill:#f4f7fb; stroke-width:0px;"/><path d="m6.85,15.62c-.34,0-.74.14-.8-.08-.1-.34.16-.68.37-1.06.21.39.35.72.43,1.13Z" style="fill:#f6f9fc; stroke-width:0px;"/><path d="m17.78,14.5c.27.09.77-.16.72.39-.05.54-.53.29-.84.33-.26.03-.6.1-.57-.37.03-.54.45-.25.69-.35Z" style="fill:#f8fafc; stroke-width:0px;"/><path d="m12.27,19.94c.46.02.98-.14,1.27.42.11.22.52.39.36.62-.26.37-.49.86-1.05.9-.39.03-.79,0-1.18,0-.25,0-.41-.03-.41-.35,0-.29.12-.38.39-.37.33.01.66,0,.98,0,.2,0,.33-.06.33-.3,0-.23-.11-.31-.32-.31-.33,0-.66,0-.98,0-.21,0-.38,0-.4-.29-.02-.34.19-.33.42-.33.2,0,.39,0,.59,0Z" style="fill:#f8fafc; stroke-width:0px;"/><path d="m16.09,22.14c-.35-.39-.65-.72-.96-1.04-.18-.18-.08-.3.05-.43.28-.3.56-.6.91-.98v2.45Z" style="fill:#fbfcfd; stroke-width:0px;"/><path d="m17.59,20.76c-.34-.03-.68.11-.68-.41,0-.58.39-.39.66-.41.34-.02.79-.05.77.44-.02.54-.53.28-.75.37Z" style="fill:#fbfcfd; stroke-width:0px;"/><path d="m20.96,20.73c-.23-.07-.66.21-.66-.39,0-.47.33-.37.58-.36.31.01.79-.15.82.36.03.49-.41.37-.75.39Z" style="fill:#f2f6fb; stroke-width:0px;"/></svg>