<?xml version="1.0" encoding="UTF-8"?><svg id="a" xmlns="http://www.w3.org/2000/svg" viewBox="0 0 36 36"><path d="m31.7,4.37c-4.78-.01-9.55,0-14.33,0-4.37,0-8.73-.01-13.09,0-.95,0-1.85.09-2.27,1.15v19.97c1.41,1.43,3.17.73,4.8.79.22.01.4-.18.37-.41-.03-.28-.25-.41-.53-.41-.75,0-1.51-.06-2.25,0-1.06.09-1.48-.26-1.45-1.39.06-3.33.05-6.66,0-9.99-.02-.89.16-1.2,1.13-1.18,3.45.07,6.91.03,10.36.03,5.83,0,11.65.01,17.48-.02.84-.01,1.13.16,1.11,1.06-.05,3.42-.02,6.83-.02,10.24,0,.52.13,1.13-.69,1.2-.25-.37-.05-.73.02-1.08.28-1.47.11-2.9-.39-4.3-.12-.35-.17-.95-.75-.78-.61.19-.26.69-.14,1.04.74,2.12.57,4.16-.42,6.16-.35.7-.8,1.02-1.65,1-3.32-.06-6.65-.05-9.98,0-.77,0-1.2-.24-1.57-.91-1.82-3.3-.94-7.42,2.12-9.7,3.05-2.27,7.28-1.85,9.98.95.27.29.51.99,1.04.51.5-.44-.07-.82-.36-1.12-2.21-2.33-4.93-3.21-8.05-2.51-4.47,1-7.21,5.11-6.43,9.63.19,1.1-.17,1.19-1.07,1.16-1.87-.05-3.75-.02-5.62,0-.37,0-.98-.22-1.02.38-.04.71.63.5,1.03.5,2.12.02,4.25.03,6.37,0,.6-.01.94.17,1.28.72,3.47,5.7,11.12,5.72,14.6.07.21-.33.29-.84.85-.77.79.09,1.27-.44,1.81-.87V5.52c-.41-1.06-1.32-1.15-2.27-1.15Zm-12.57,24.01h9.84c-2.69,2.68-7.54,2.66-9.84,0Zm12.43-16.4c-4.53.02-9.06.01-13.6.01s-9.31-.02-13.96.02c-.79,0-1.05-.17-1.07-1.01-.01-.92.39-.97,1.11-.97,7.11.02,14.22.01,21.33.01h.87c.32,0,.61-.08.6-.46-.02-.36-.31-.46-.62-.48-.34-.01-.67,0-1,0-6.99,0-13.97-.04-20.95.03-1.15.01-1.37-.33-1.32-1.38.1-2.18-.35-2.18,2.14-2.17h26.19q1.73,0,1.73,1.7c0,.37-.03.75.01,1.12.05.55-.16.72-.71.71-1.08-.04-2.16-.04-3.24,0-.48.01-1.28-.27-1.28.5,0,.73.78.39,1.21.42.87.05,1.75.01,2.62.02.69,0,1.44-.29,1.44,1-.01,1.37-.88.92-1.5.93Z" style="fill:#010101; stroke-width:0px;"/><path d="m13.92,19.23c-1.89-1.34-5.93-1.33-7.81.02-1.29.92-1.28,2.27.03,3.15,1.18.79,2.53.94,3.91,1.01,1.32-.08,2.64-.21,3.8-.97,1.4-.91,1.42-2.25.07-3.21Zm-.57,2.42c-1.51,1.08-5.18,1.08-6.67,0-.78-.57-.79-1.11.02-1.65,1.01-.67,2.16-.8,3.33-.79,1.14-.02,2.25.12,3.23.73.91.56.92,1.12.09,1.72Z" style="fill:#030303; stroke-width:0px;"/><path d="m21.25,21.45c-.62-.1-1.01,0-1.2.45-.14.32-.13.65.14.93.33.34.7.44,1.11.15.32-.23.64-.3.81.12.19.47-.23.7-.55.83-.81.32-1.57.19-2.13-.52-.59-.74-.6-1.53,0-2.29.56-.71,1.32-.82,2.13-.55.28.09.56.28.46.64-.17.58-.6.23-.76.24Z" style="fill:#080808; stroke-width:0px;"/><path d="m27.53,22.02c.58-.47.32-1.77,1.13-1.45.88.34.02,1.21-.14,1.81-.16.59-.09,1.58-.86,1.62-.92.05-.71-1.04-1.01-1.61-.19-.36-.3-.77-.41-1.17-.08-.27-.16-.6.23-.72.36-.11.53.12.65.41.13.34.26.69.42,1.12Z" style="fill:#060606; stroke-width:0px;"/><path d="m24.1,22.16c.14-.28.2-.43.28-.57.24-.41.1-1.32.88-1.04.61.22.13.86,0,1.3-.17.6-.37,1.18-.57,1.77-.09.25-.26.43-.54.44-.29,0-.45-.18-.54-.43-.27-.74-.53-1.48-.78-2.22-.1-.31-.28-.69.12-.88.48-.22.64.19.78.55.12.31.22.62.38,1.08Z" style="fill:#050505; stroke-width:0px;"/></svg>