<?xml version="1.0" encoding="UTF-8"?><svg id="a" xmlns="http://www.w3.org/2000/svg" viewBox="0 0 35.9 24.45"><path d="m35.9,21.85c0,1.81-1.69,2.6-3,2.6-9.95-.02-19.9,0-29.85-.01-2.39,0-3.05-.69-3.05-3.11C0,15.21,0,9.1,0,2.98,0,.75.7.02,2.91.01,12.96,0,23,.02,33.04,0c1.28,0,2.86,0,2.86,1.57v20.28Z" style="fill:#010101; stroke-width:0px;"/><path d="m17.81,5.77c-5.05,0-10.1-.02-15.14.02-.92,0-1.3-.13-1.27-1.18.1-3.55-.36-3.13,3.17-3.13,9.35-.01,18.69,0,28.04,0,1.85,0,1.87.03,1.88,1.88q0,2.42-2.37,2.42c-4.77,0-9.53,0-14.3,0Z" style="fill:#fefefe; stroke-width:0px;"/><path d="m17.95,10.05c5.05,0,10.09.03,15.14-.02,1.03,0,1.46.16,1.42,1.34-.09,3.36-.07,6.72-.01,10.09.02,1.17-.41,1.54-1.55,1.54-10-.03-20-.03-29.99,0-1.14,0-1.57-.36-1.55-1.54.06-3.41.06-6.82,0-10.23-.02-1.04.34-1.21,1.28-1.2,5.09.04,10.19.02,15.28.02Z" style="fill:#fefefe; stroke-width:0px;"/><path d="m12.9,14.4c2.01,0,4.02,0,6.03,0,.54,0,1.13.04,1.1.74-.03.55-.53.7-1.04.7-4.02,0-8.04,0-12.06,0-.53,0-1.11-.06-1.08-.78.03-.75.67-.65,1.17-.66,1.96-.01,3.93,0,5.89,0Z" style="fill:#040404; stroke-width:0px;"/><path d="m9.96,17.26c1.11,0,2.23,0,3.34,0,.51,0,1,.13.98.72-.01.58-.5.71-1,.7-2.18,0-4.36,0-6.54,0-.46,0-.87-.14-.91-.66-.04-.61.41-.76.93-.76,1.07,0,2.13,0,3.2,0Z" style="fill:#010101; stroke-width:0px;"/></svg>