<?xml version="1.0" encoding="UTF-8"?><svg id="a" xmlns="http://www.w3.org/2000/svg" viewBox="0 0 36 36"><path d="m34.23,10.74c.65.2.49.75.49,1.21,0,5.04.01,10.07,0,15.11,0,1.95-.94,2.87-2.93,2.88-9.29.01-18.57,0-27.86.02-1.4,0-2.3-.63-2.92-1.81V8.13c.63-1.25,1.6-1.82,3.04-1.81,9.24.03,18.48.01,27.72.02,2.03,0,3.22,1.3,2.94,3.13-.04.3-.17.48-.46.55-.71.27-.82-.27-.91-.73-.14-.68-.39-1.24-1.12-1.44-.38-.15-.78-.13-1.17-.13-8.82,0-17.64,0-26.46,0-.35,0-.7-.02-1.04.11-.15.06-.3.11-.44.17-.58.33-.65.87-.66,1.46-.02,5.77-.02,11.54,0,17.31,0,.69.07,1.33.87,1.56.6.17,1.21.18,1.83.18,8.46,0,16.93,0,25.39,0,.9,0,1.89.15,2.46-.83.35-.56.27-1.18.28-1.78.02-4.44-.07-8.88-.02-13.33,0-.71-.22-1.67.95-1.82Z" style="fill:#212222; stroke-width:0px;"/><path d="m34.23,10.74c-.71.29-.56.92-.56,1.47,0,4.77,0,9.55-.01,14.32,0,.46.16.97-.24,1.37-.67-.74-.62-1.67-.65-2.57-.05-1.21.11-2.43-.24-3.62.22-.88.54-1.74-.14-2.6-.3-.37,0-.85.07-1.27.21-1.43-.22-2.33-1.61-2.53-2.32-.34-4.68-.68-6.96.3-.24.1-.5.29-.75.16-1.99-1-4.06-.37-6.11-.44-2.66-.1-5.32.17-7.99-.05-1.67-.14-3.37-.02-5.06-.12-.39-.02-.79.11-1.14-.16-.38-.43-.36-.96-.36-1.48,0-1.38,0-2.77,0-4.15,0-.67.13-1.29.65-1.77h0c.32-.2.68-.12,1.03-.12,9.15,0,18.3,0,27.46,0,.34,0,.7-.08,1.03.11.83.13.97.78,1.03,1.44.04.44,0,.9.6.98,0,.24-.02.48-.03.73Z" style="fill:#34495e; stroke-width:0px;"/><path d="m32.59,21.54c.55.23.55.71.55,1.2,0,1.72-.09,3.45.27,5.16-.18.9-.9,1.01-1.61,1.01-9.28.01-18.56,0-27.84,0-.31,0-.62.02-.85-.25-.17-.2-.43-.38-.45-.63-.24-2.25-.49-4.5.15-6.74,2.28-.37,4.57-.41,6.87-.18.09,0,.18.05.26.02,2.16-.62,4.37.2,6.53-.29.26-.06.54-.1.78-.01,1.37.52,2.66.42,3.87-.46.37-.27.73-.21,1.05.15.26.29.64.74.97.56,1.57-.88,3.04.21,4.57.15,1.39-.05,2.79-.44,4.18-.02.25.08.52.11.7.33Z" style="fill:#34495e; stroke-width:0px;"/><path d="m3.12,21.29c-.45,2.46-.38,4.92,0,7.37-.91-.15-1.04-.86-1.04-1.57-.01-5.98-.01-11.95,0-17.93,0-.71.13-1.42,1.04-1.57-.38,2.46-.45,4.91,0,7.37-.2,2.11-.2,4.22,0,6.32Z" style="fill:#304254; stroke-width:0px;"/><path d="m32.63,7.59c-9.84,0-19.67,0-29.51,0,.39-.42.9-.25,1.37-.25,8.93,0,17.85,0,26.78,0,.46,0,.97-.16,1.37.24Z" style="fill:#304254; stroke-width:0px;"/><path d="m3.12,21.29c-.83-2.11-.83-4.22,0-6.32.9-.27,1.77-.29,2.71-.06,1.42.35,2.86-.33,4.3-.04.04,0,.09-.05.12-.04,2.05,1,4.19-.71,6.25.22.18.08.46.12.62.03,1.49-.87,3.23-.44,4.58-.18,1.32.25,2.34-.01,3.52-.14,1.6-.17,3.24-.1,4.86-.03,2.35.11,3.28,1.45,2.57,3.69-.14.45,0,.64.23.9.75.84.58,1.57-.28,2.21-1.95-.29-3.9.08-5.85,0-.57-.02-1.14.05-1.58-.44-.23-.26-.42-.26-.77-.05-1.42.86-1.8.75-2.74-.7-1.32,1.16-2.76,1.66-4.43.76-.36-.19-.68.04-1,.16-.99.37-1.96.41-2.9-.15-.21-.13-.46-.32-.73-.17-1.85,1.02-3.74.58-5.64.18-.43-.09-.93.15-1.39.26-.83.2-1.64.25-2.44-.11Z" style="fill:#202121; stroke-width:0px;"/><path d="m21.27,18.13c0,1.33-1.09,2.4-2.42,2.38-1.35-.02-2.36-1.08-2.33-2.45.03-1.31,1.02-2.29,2.33-2.3,1.34-.01,2.42,1.05,2.42,2.37Z" style="fill:#f06d21; stroke-width:0px;"/><path d="m4.59,20.44c-.76.16-.98-.24-.93-1.03.05-.83.06-1.67,0-2.5-.07-.86.21-1.16,1.1-1.11,1.68.11,2.65.89,2.66,2.28,0,1.45-1.01,2.33-2.82,2.35Z" style="fill:#dcdeda; stroke-width:0px;"/><path d="m32.22,20.31c-1.45.46-1.38-1.09-2.19-1.34-.45.38.3,1.49-.66,1.39-.81-.08-.34-.99-.41-1.52-.08-.56-.07-1.14,0-1.69.06-.45-.38-1.17.45-1.28.81-.1,1.73-.17,2.27.62.4.59.39,1.32-.25,1.74-.52.35-.35.56-.08.89.29.36.55.75.87,1.19Z" style="fill:#dcdeda; stroke-width:0px;"/><path d="m25.8,18.36c0-.44,0-.66,0-.88.01-1.77.09-1.84,1.86-1.65.29.03.67-.05.71.39.04.46-.34.41-.64.44-.13.01-.26.01-.39,0-.39-.01-.55.18-.54.56.01.39.3.33.55.38.34.06.93-.24.96.35.04.74-.63.42-.98.43-.52.02-.53.31-.54.69,0,.48.24.56.65.59.33.02.94-.25.9.39-.03.56-.61.37-.96.37-1.97-.03-1.54.29-1.59-2.06Z" style="fill:#dbddd8; stroke-width:0px;"/><path d="m23.26,18.83c.39-.94.7-1.7,1.01-2.45.14-.35.36-.67.78-.5.52.22.16.59.04.87-.43,1.05-.87,2.1-1.32,3.14-.11.26-.14.64-.57.61-.35-.02-.37-.34-.47-.56-.46-1.09-.89-2.19-1.33-3.28-.11-.27-.35-.61.07-.78.41-.18.65.11.8.47.31.77.61,1.54.99,2.48Z" style="fill:#dee0db; stroke-width:0px;"/><path d="m11.26,16.66c-.46-.17-.86-.04-.92.32-.08.5.45.55.79.69.98.4,1.35,1.08.94,2.08-.32.78-1.46,1.07-2.26.59-.27-.16-.72-.32-.54-.76.21-.52.52-.2.82-.03.42.24.91.29,1.11-.23.26-.66-.35-.78-.78-.96-.78-.31-1.31-.8-.97-1.69.32-.82,1.02-1.03,1.83-.78.28.09.78.11.65.6-.11.39-.44.36-.67.15Z" style="fill:#e0e2dd; stroke-width:0px;"/><path d="m14.94,20.49c-1.49-.02-2.51-1.17-2.38-2.6.12-1.35,1.46-2.37,2.77-2.15.45.08.77.23.69.74-.13.78-.51.11-.74.09-.62-.07-1.14.05-1.48.59-.36.56-.39,1.16-.07,1.74.27.5.77.63,1.3.76.34.08.93-.96.99.15.05.78-.69.59-1.08.68Z" style="fill:#dfe0dc; stroke-width:0px;"/><path d="m8.75,18.04c0,.56,0,1.13,0,1.69,0,.35,0,.73-.51.72-.45-.01-.4-.37-.41-.66,0-1.08,0-2.17,0-3.25,0-.33-.06-.75.48-.72.43.02.43.36.43.66,0,.52,0,1.04,0,1.56Z" style="fill:#b5b6b3; stroke-width:0px;"/><path d="m14.96,18.58c-.28-.04-.45-.21-.42-.51.02-.22.17-.4.42-.38.3.02.47.21.44.5-.02.22-.19.37-.44.39Z" style="fill:#2f3f4e; stroke-width:0px;"/><path d="m4.48,18.21c.44-.5-.37-1.43.68-1.47.88-.03,1.33.62,1.34,1.45.01.88-.58,1.44-1.39,1.4-1.07-.06-.1-1.03-.63-1.38Z" style="fill:#252727; stroke-width:0px;"/><path d="m30.2,17.91c-.47-.05-.36-.45-.36-.77,0-.31.03-.64.47-.57.42.07.73.3.67.77-.05.39-.34.57-.78.57Z" style="fill:#414445; stroke-width:0px;"/></svg>