<?xml version="1.0" encoding="UTF-8"?><svg id="a" xmlns="http://www.w3.org/2000/svg" viewBox="0 0 36 36"><path d="m17.81,29.52c-4.32,0-8.64,0-12.95,0-2.82,0-3.85-1.02-3.85-3.78,0-5.37,0-10.74,0-16.12,0-2.5,1.1-3.62,3.55-3.62,8.89,0,17.77,0,26.66,0,2.45,0,3.55,1.13,3.55,3.62,0,5.42,0,10.84,0,16.27,0,2.56-1.1,3.62-3.7,3.62-4.42,0-8.84,0-13.25,0Z" style="fill:#231f20; stroke-width:0px;"/><path d="m32.91,9.92c.02,5.42.03,10.85.05,16.27,0,1.08-.54,1.53-1.59,1.53-8.99,0-17.98,0-26.98,0-1.05,0-1.6-.44-1.59-1.53.02-5.42.04-10.85.05-16.27.47-.66,1.16-.71,1.88-.71,8.76-.01,17.53-.01,26.29,0,.72,0,1.41.06,1.88.71Z" style="fill:#d7dfe9; stroke-width:0px;"/><path d="m2.86,9.64c-.19-1.31.41-1.83,1.7-1.83,8.89.02,17.78.02,26.67,0,1.29,0,1.88.52,1.7,1.83-.76-.25-1.54-.33-2.35-.33-8.45.01-16.91.01-25.36,0-.81,0-1.59.07-2.35.33Z" style="fill:#a9b1bb; stroke-width:0px;"/><path d="m2.86,9.64c.5-.46,1.08-.63,1.78-.63,8.84.02,17.67.02,26.51,0,.7,0,1.28.16,1.78.63.05.09.04.19,0,.28-.72-.22-1.45-.31-2.22-.3-8.54.02-17.08.02-25.62,0-.76,0-1.49.09-2.22.3-.05-.09-.05-.19,0-.28Z" style="fill:#f1f9fe; stroke-width:0px;"/><path d="m17.93,13.96c2.26-1.64,4.64-1.85,7-.33,2.18,1.4,3.08,3.5,2.64,6.08-.45,2.59-2.06,4.16-4.55,4.82-1.87.49-3.56-.03-5.08-1.15.33-1.41,1.53-2.42,1.81-3.86.24-.57.24-1.14,0-1.71-.28-1.44-1.48-2.44-1.81-3.85Z" style="fill:#f69e1a; stroke-width:0px;"/><path d="m17.64,23.43c-2.59,1.92-5.83,1.63-7.99-.73-2.09-2.28-2.09-5.8,0-8.08,2.16-2.35,5.41-2.65,7.99-.72.13.67-.32,1.1-.66,1.57-.5.69-.78,1.46-.95,2.29-.21.6-.21,1.21,0,1.81.17.93.53,1.78,1.12,2.53.3.38.61.78.49,1.33Z" style="fill:#e90a1b; stroke-width:0px;"/><path d="m17.64,23.43c-.73-1.23-1.99-2.2-1.88-3.84-.2-.61-.2-1.23,0-1.84-.11-1.64,1.15-2.61,1.88-3.84.1.02.2.04.3.06.98,1.12,1.8,2.32,2.09,3.82.2.6.2,1.19,0,1.79-.29,1.5-1.11,2.7-2.09,3.82-.1.02-.2.04-.3.06Z" style="fill:#fe5f01; stroke-width:0px;"/><path d="m20.02,19.56c0-.6,0-1.19,0-1.79.43.6.43,1.19,0,1.79Z" style="fill:#f2973f; stroke-width:0px;"/><path d="m15.76,17.75c0,.61,0,1.23,0,1.84-.43-.61-.43-1.23,0-1.84Z" style="fill:#ec5640; stroke-width:0px;"/></svg>