<?xml version="1.0" encoding="UTF-8"?><svg id="a" xmlns="http://www.w3.org/2000/svg" viewBox="0 0 36 36"><path d="m32.97,13.81c-.11-.47.16-1.39-.78-1.34-1.07.07-2.47-.56-3.08.8-1.48,3.31-2.83,6.67-4.26,10.1,1.03,0,1.91.11,2.75-.04.58-.1.43-.93.76-1.36.2-.26.48-.21.74-.21.59-.01,1.19.04,1.78-.01.79-.07,1.35.09,1.36,1.02.01.57.37.64.83.63.64-.02,1.28,0,1.91,0v-.55c-.87-2.97-1.3-6.03-2.01-9.03Zm-2.93,5.73c-.22-.03-.45-.02-.77-.04.39-1.28.75-2.51,1.48-3.85.2.97.27,1.74.52,2.44.45,1.26-.01,1.65-1.23,1.45Z" style="fill:#1a2ade; stroke-width:0px;"/><path d="m0,12.45c1.59,0,3.04.02,4.49,0,1.07-.02,1.56.54,1.74,1.53.33,1.82.68,3.64,1.27,5.47.78-1.96,1.55-3.93,2.33-5.89.37-.93,2.13-1.55,3.03-1.08.38.2.18.45.09.67-1.35,3.23-2.66,6.48-4.07,9.68-.52,1.17-1.7.37-2.56.56-.71.16-.78-.43-.9-.92-.56-2.2-1.22-4.39-1.66-6.61-.31-1.6-1.12-2.51-2.7-2.8C.74,12.99.33,13.05,0,12.45Z" style="fill:#1a2ade; stroke-width:0px;"/><path d="m20.02,23.6c-.47-.06-1.01-.12-1.55-.2-1.53-.23-1.93-1.08-1.16-2.41.26-.45.51-.21.78-.11.92.36,1.86.42,2.82.29.47-.06.88-.27,1.02-.78.15-.54-.2-.86-.6-1.1-.62-.38-1.29-.69-1.88-1.11-1.74-1.21-1.87-3.23-.34-4.66,1.26-1.18,4.26-1.68,5.82-.98,1.04.47.2,1.17.21,1.76,0,.72-.44.63-.94.47-.75-.25-1.53-.27-2.3-.12-.41.08-.78.31-.85.77-.06.43.25.66.57.85.54.33,1.1.64,1.65.96,1.06.61,1.73,1.45,1.67,2.75-.07,1.36-.75,2.29-1.93,2.92-.91.48-1.91.57-2.98.69Z" style="fill:#1b2ade; stroke-width:0px;"/><path d="m13.52,23.39c-1.15.22-1.4-.18-1.14-1.29.68-2.87,1.24-5.76,1.86-8.64.18-.83,2.21-1.49,2.84-.92.24.22.11.51.05.75-.66,3.1-1.39,6.19-1.98,9.31-.23,1.18-1.04.68-1.63.79Z" style="fill:#1b2ade; stroke-width:0px;"/></svg>